<?xml version="1.0" encoding="UTF-8" standalone="no"?>
<!DOCTYPE svg PUBLIC "-//W3C//DTD SVG 1.1//EN"
 "http://www.w3.org/Graphics/SVG/1.1/DTD/svg11.dtd">
<!-- Generated by graphviz version 13.0.1 (20250615.1724)
 -->
<!-- Title: model Pages: 1 -->
<svg width="1333pt" height="642pt"
 viewBox="0.00 0.00 1333.00 642.00" xmlns="http://www.w3.org/2000/svg" xmlns:xlink="http://www.w3.org/1999/xlink">
<g id="graph0" class="graph" transform="scale(1 1) rotate(0) translate(4 638.2)">
<title>model</title>
<polygon fill="white" stroke="none" points="-4,4 -4,-638.2 1329.28,-638.2 1329.28,4 -4,4"/>
<text xml:space="preserve" text-anchor="middle" x="662.64" y="-7.2" font-family="Times,serif" font-size="14.00">Results for 2060</text>
<!-- CEM_PROD_CCS -->
<g id="node1" class="node">
<title>CEM_PROD_CCS</title>
<polygon fill="powderblue" stroke="powderblue" points="1159.76,-470.5 1038.76,-470.5 1038.76,-434.5 1159.76,-434.5 1159.76,-470.5"/>
<text xml:space="preserve" text-anchor="middle" x="1099.26" y="-447.45" font-family="Times,serif" font-size="14.00">CEM_PROD_CCS</text>
</g>
<!-- CEM -->
<g id="node26" class="node">
<title>CEM</title>
<g id="a_node26"><a xlink:href="#" xlink:title="CEM">
<ellipse fill="lightsteelblue" stroke="lightsteelblue" cx="1280.58" cy="-495.5" rx="31.39" ry="31.39"/>
<text xml:space="preserve" text-anchor="middle" x="1280.58" y="-490.45" font-family="Times,serif" font-size="14.00">CEM</text>
</a>
</g>
</g>
<!-- CEM_PROD_CCS&#45;&gt;CEM -->
<g id="edge1" class="edge">
<title>CEM_PROD_CCS&#45;&gt;CEM</title>
<path fill="none" stroke="powderblue" d="M1159.97,-466.82C1185.89,-473.03 1215.58,-480.15 1238.89,-485.74"/>
<polygon fill="powderblue" stroke="powderblue" points="1248.6,-488.07 1237.82,-490.11 1244.92,-487.19 1238.87,-485.74 1238.87,-485.74 1238.87,-485.74 1244.92,-487.19 1239.92,-481.36 1248.6,-488.07"/>
</g>
<!-- CEM_PROD_RETRO -->
<g id="node2" class="node">
<title>CEM_PROD_RETRO</title>
<polygon fill="powderblue" stroke="powderblue" points="1169.13,-584.5 1029.38,-584.5 1029.38,-548.5 1169.13,-548.5 1169.13,-584.5"/>
<text xml:space="preserve" text-anchor="middle" x="1099.26" y="-561.45" font-family="Times,serif" font-size="14.00">CEM_PROD_RETRO</text>
</g>
<!-- CEM_PROD_RETRO&#45;&gt;CEM -->
<g id="edge2" class="edge">
<title>CEM_PROD_RETRO&#45;&gt;CEM</title>
<path fill="none" stroke="powderblue" d="M1146.9,-548.03C1175.95,-536.53 1212.88,-521.91 1240.4,-511.01"/>
<polygon fill="powderblue" stroke="powderblue" points="1249.69,-507.34 1242.05,-515.2 1246.17,-508.73 1240.39,-511.02 1240.39,-511.02 1240.39,-511.02 1246.17,-508.73 1238.73,-506.83 1249.69,-507.34"/>
</g>
<!-- E21 -->
<g id="node3" class="node">
<title>E21</title>
<polygon fill="powderblue" stroke="powderblue" points="392.51,-405.5 338.51,-405.5 338.51,-369.5 392.51,-369.5 392.51,-405.5"/>
<text xml:space="preserve" text-anchor="middle" x="365.51" y="-382.45" font-family="Times,serif" font-size="14.00">E21</text>
</g>
<!-- ELC -->
<g id="node28" class="node">
<title>ELC</title>
<g id="a_node28"><a xlink:href="#" xlink:title="ELC">
<ellipse fill="lightsteelblue" stroke="lightsteelblue" cx="934.31" cy="-355.5" rx="28.32" ry="28.32"/>
<text xml:space="preserve" text-anchor="middle" x="934.31" y="-350.45" font-family="Times,serif" font-size="14.00">ELC</text>
</a>
</g>
</g>
<!-- E21&#45;&gt;ELC -->
<g id="edge3" class="edge">
<title>E21&#45;&gt;ELC</title>
<path fill="none" stroke="powderblue" d="M392.94,-385.96C485.44,-380.75 786.12,-363.84 894.73,-357.73"/>
<polygon fill="powderblue" stroke="powderblue" points="904.6,-357.17 894.87,-362.23 900.82,-357.38 894.61,-357.73 894.61,-357.73 894.61,-357.73 900.82,-357.38 894.36,-353.24 904.6,-357.17"/>
</g>
<!-- IMPDSL1 -->
<g id="node4" class="node">
<title>IMPDSL1</title>
<g id="a_node4"><a xlink:href="#" xlink:title="IMPDSL1\nCapacity: 99999.00">
<polygon fill="powderblue" stroke="powderblue" points="122.5,-217 0,-217 0,-176 122.5,-176 122.5,-217"/>
<text xml:space="preserve" text-anchor="middle" x="61.25" y="-199.7" font-family="Times,serif" font-size="14.00">IMPDSL1</text>
<text xml:space="preserve" text-anchor="middle" x="61.25" y="-183.2" font-family="Times,serif" font-size="14.00">Capacity: 99999.00</text>
</a>
</g>
</g>
<!-- DSL -->
<g id="node27" class="node">
<title>DSL</title>
<g id="a_node27"><a xlink:href="#" xlink:title="DSL">
<ellipse fill="lightsteelblue" stroke="lightsteelblue" cx="575.13" cy="-179.5" rx="28.32" ry="28.32"/>
<text xml:space="preserve" text-anchor="middle" x="575.13" y="-174.45" font-family="Times,serif" font-size="14.00">DSL</text>
</a>
</g>
</g>
<!-- IMPDSL1&#45;&gt;DSL -->
<g id="edge36" class="edge">
<title>IMPDSL1&#45;&gt;DSL</title>
<path fill="none" stroke="forestgreen" d="M122.93,-192.2C182.01,-188.09 262.26,-182.5 262.26,-182.5 262.26,-182.5 451.11,-180.69 535.37,-179.88"/>
<polygon fill="forestgreen" stroke="forestgreen" points="545.31,-179.79 535.36,-184.38 541.53,-179.82 535.31,-179.88 535.31,-179.88 535.31,-179.88 541.53,-179.82 535.27,-175.38 545.31,-179.79"/>
<text xml:space="preserve" text-anchor="middle" x="281.01" y="-185.7" font-family="Times,serif" font-size="14.00">102.85</text>
</g>
<!-- co2 -->
<g id="node35" class="node">
<title>co2</title>
<ellipse fill="lightsteelblue" stroke="lightsteelblue" cx="213.38" cy="-234.5" rx="24.23" ry="24.23"/>
<text xml:space="preserve" text-anchor="middle" x="213.38" y="-229.45" font-family="Times,serif" font-size="14.00">co2</text>
</g>
<!-- IMPDSL1&#45;&gt;co2 -->
<g id="edge37" class="edge">
<title>IMPDSL1&#45;&gt;co2</title>
<path fill="none" stroke="forestgreen" d="M122.88,-211.85C141.92,-216.67 162.25,-221.81 178.72,-225.98"/>
<polygon fill="forestgreen" stroke="forestgreen" points="188.25,-228.39 177.46,-230.3 184.59,-227.47 178.56,-225.94 178.56,-225.94 178.56,-225.94 184.59,-227.47 179.66,-221.58 188.25,-228.39"/>
<text xml:space="preserve" text-anchor="middle" x="152.5" y="-225.41" font-family="Times,serif" font-size="14.00">7.71</text>
</g>
<!-- IMPFEQ -->
<g id="node5" class="node">
<title>IMPFEQ</title>
<polygon fill="powderblue" stroke="powderblue" points="94.38,-522.5 28.12,-522.5 28.12,-486.5 94.38,-486.5 94.38,-522.5"/>
<text xml:space="preserve" text-anchor="middle" x="61.25" y="-499.45" font-family="Times,serif" font-size="14.00">IMPFEQ</text>
</g>
<!-- FEQ -->
<g id="node13" class="node">
<title>FEQ</title>
<ellipse fill="lightsteelblue" stroke="powderblue" cx="213.38" cy="-504.5" rx="28.32" ry="28.32"/>
<text xml:space="preserve" text-anchor="middle" x="213.38" y="-499.45" font-family="Times,serif" font-size="14.00" fill="chocolate">FEQ</text>
</g>
<!-- IMPFEQ&#45;&gt;FEQ -->
<g id="edge11" class="edge">
<title>IMPFEQ&#45;&gt;FEQ</title>
<path fill="none" stroke="powderblue" d="M94.83,-504.5C118.05,-504.5 149.37,-504.5 173.85,-504.5"/>
<polygon fill="powderblue" stroke="powderblue" points="183.68,-504.5 173.68,-509 179.9,-504.5 173.68,-504.5 173.68,-504.5 173.68,-504.5 179.9,-504.5 173.68,-500 183.68,-504.5"/>
</g>
<!-- IMPGSL1 -->
<g id="node6" class="node">
<title>IMPGSL1</title>
<g id="a_node6"><a xlink:href="#" xlink:title="IMPGSL1\nCapacity: 99999.00">
<polygon fill="powderblue" stroke="powderblue" points="122.5,-157 0,-157 0,-116 122.5,-116 122.5,-157"/>
<text xml:space="preserve" text-anchor="middle" x="61.25" y="-139.7" font-family="Times,serif" font-size="14.00">IMPGSL1</text>
<text xml:space="preserve" text-anchor="middle" x="61.25" y="-123.2" font-family="Times,serif" font-size="14.00">Capacity: 99999.00</text>
</a>
</g>
</g>
<!-- GSL -->
<g id="node29" class="node">
<title>GSL</title>
<g id="a_node29"><a xlink:href="#" xlink:title="GSL">
<ellipse fill="lightsteelblue" stroke="lightsteelblue" cx="575.13" cy="-66.5" rx="28.32" ry="28.32"/>
<text xml:space="preserve" text-anchor="middle" x="575.13" y="-61.45" font-family="Times,serif" font-size="14.00">GSL</text>
</a>
</g>
</g>
<!-- IMPGSL1&#45;&gt;GSL -->
<g id="edge38" class="edge">
<title>IMPGSL1&#45;&gt;GSL</title>
<path fill="none" stroke="forestgreen" d="M122.85,-130.77C183.03,-125.18 265.63,-117.5 265.63,-117.5 265.63,-117.5 452.45,-86.72 535.8,-72.98"/>
<polygon fill="forestgreen" stroke="forestgreen" points="545.64,-71.36 536.5,-77.43 541.91,-71.97 535.77,-72.99 535.77,-72.99 535.77,-72.99 541.91,-71.97 535.04,-68.55 545.64,-71.36"/>
<text xml:space="preserve" text-anchor="middle" x="281.01" y="-120.7" font-family="Times,serif" font-size="14.00">30.00</text>
</g>
<!-- IMPGSL1&#45;&gt;co2 -->
<g id="edge39" class="edge">
<title>IMPGSL1&#45;&gt;co2</title>
<path fill="none" stroke="forestgreen" d="M94.09,-157.28C120.5,-174.52 157.73,-198.83 183.33,-215.54"/>
<polygon fill="forestgreen" stroke="forestgreen" points="191.51,-220.88 180.68,-219.18 188.34,-218.81 183.14,-215.41 183.14,-215.41 183.14,-215.41 188.34,-218.81 185.6,-211.64 191.51,-220.88"/>
<text xml:space="preserve" text-anchor="middle" x="152.5" y="-199.2" font-family="Times,serif" font-size="14.00">2.25</text>
</g>
<!-- IMPHCO1 -->
<g id="node7" class="node">
<title>IMPHCO1</title>
<g id="a_node7"><a xlink:href="#" xlink:title="IMPHCO1\nCapacity: 99999.00">
<polygon fill="powderblue" stroke="powderblue" points="122.5,-465 0,-465 0,-424 122.5,-424 122.5,-465"/>
<text xml:space="preserve" text-anchor="middle" x="61.25" y="-447.7" font-family="Times,serif" font-size="14.00">IMPHCO1</text>
<text xml:space="preserve" text-anchor="middle" x="61.25" y="-431.2" font-family="Times,serif" font-size="14.00">Capacity: 99999.00</text>
</a>
</g>
</g>
<!-- HCO -->
<g id="node30" class="node">
<title>HCO</title>
<g id="a_node30"><a xlink:href="#" xlink:title="HCO">
<ellipse fill="lightsteelblue" stroke="lightsteelblue" cx="575.13" cy="-452.5" rx="30.37" ry="30.37"/>
<text xml:space="preserve" text-anchor="middle" x="575.13" y="-447.45" font-family="Times,serif" font-size="14.00">HCO</text>
</a>
</g>
</g>
<!-- IMPHCO1&#45;&gt;HCO -->
<g id="edge40" class="edge">
<title>IMPHCO1&#45;&gt;HCO</title>
<path fill="none" stroke="forestgreen" d="M122.85,-445.71C183.03,-446.88 265.63,-448.5 265.63,-448.5 265.63,-448.5 448.81,-450.87 533.32,-451.96"/>
<polygon fill="forestgreen" stroke="forestgreen" points="543.1,-452.09 533.04,-456.46 539.32,-452.04 533.1,-451.96 533.1,-451.96 533.1,-451.96 539.32,-452.04 533.16,-447.46 543.1,-452.09"/>
<text xml:space="preserve" text-anchor="middle" x="281.01" y="-451.7" font-family="Times,serif" font-size="14.00">64.80</text>
</g>
<!-- IMPHCO1&#45;&gt;co2 -->
<g id="edge41" class="edge">
<title>IMPHCO1&#45;&gt;co2</title>
<path fill="none" stroke="forestgreen" d="M77.19,-423.6C104.22,-385.79 161.27,-306 191.9,-263.15"/>
<polygon fill="forestgreen" stroke="forestgreen" points="197.66,-255.08 195.51,-265.83 195.47,-258.16 191.85,-263.22 191.85,-263.22 191.85,-263.22 195.47,-258.16 188.19,-260.6 197.66,-255.08"/>
<text xml:space="preserve" text-anchor="middle" x="152.5" y="-378.05" font-family="Times,serif" font-size="14.00">5.77</text>
</g>
<!-- IMPHYD -->
<g id="node8" class="node">
<title>IMPHYD</title>
<g id="a_node8"><a xlink:href="#" xlink:title="IMPHYD\nCapacity: 99999.00">
<polygon fill="powderblue" stroke="powderblue" points="122.5,-329 0,-329 0,-288 122.5,-288 122.5,-329"/>
<text xml:space="preserve" text-anchor="middle" x="61.25" y="-311.7" font-family="Times,serif" font-size="14.00">IMPHYD</text>
<text xml:space="preserve" text-anchor="middle" x="61.25" y="-295.2" font-family="Times,serif" font-size="14.00">Capacity: 99999.00</text>
</a>
</g>
</g>
<!-- HYD -->
<g id="node31" class="node">
<title>HYD</title>
<g id="a_node31"><a xlink:href="#" xlink:title="HYD">
<ellipse fill="lightsteelblue" stroke="lightsteelblue" cx="213.38" cy="-308.5" rx="30.88" ry="30.88"/>
<text xml:space="preserve" text-anchor="middle" x="213.38" y="-303.45" font-family="Times,serif" font-size="14.00">HYD</text>
</a>
</g>
</g>
<!-- IMPHYD&#45;&gt;HYD -->
<g id="edge42" class="edge">
<title>IMPHYD&#45;&gt;HYD</title>
<path fill="none" stroke="forestgreen" d="M122.88,-308.5C139.09,-308.5 156.24,-308.5 171.14,-308.5"/>
<polygon fill="forestgreen" stroke="forestgreen" points="180.82,-308.5 170.82,-313 177.04,-308.5 170.82,-308.5 170.82,-308.5 170.82,-308.5 177.04,-308.5 170.82,-304 180.82,-308.5"/>
<text xml:space="preserve" text-anchor="middle" x="152.5" y="-311.7" font-family="Times,serif" font-size="14.00">3.52</text>
</g>
<!-- IMPOIL1 -->
<g id="node9" class="node">
<title>IMPOIL1</title>
<polygon fill="powderblue" stroke="powderblue" points="96.25,-81.5 26.25,-81.5 26.25,-45.5 96.25,-45.5 96.25,-81.5"/>
<text xml:space="preserve" text-anchor="middle" x="61.25" y="-58.45" font-family="Times,serif" font-size="14.00">IMPOIL1</text>
</g>
<!-- OIL -->
<g id="node14" class="node">
<title>OIL</title>
<ellipse fill="lightsteelblue" stroke="powderblue" cx="213.38" cy="-63.5" rx="26.27" ry="26.27"/>
<text xml:space="preserve" text-anchor="middle" x="213.38" y="-58.45" font-family="Times,serif" font-size="14.00" fill="chocolate">OIL</text>
</g>
<!-- IMPOIL1&#45;&gt;OIL -->
<g id="edge12" class="edge">
<title>IMPOIL1&#45;&gt;OIL</title>
<path fill="none" stroke="powderblue" d="M96.69,-63.5C120.35,-63.5 151.71,-63.5 175.81,-63.5"/>
<polygon fill="powderblue" stroke="powderblue" points="185.78,-63.5 175.78,-68 182,-63.5 175.78,-63.5 175.78,-63.5 175.78,-63.5 182,-63.5 175.78,-59 185.78,-63.5"/>
</g>
<!-- IMPURN1 -->
<g id="node10" class="node">
<title>IMPURN1</title>
<polygon fill="powderblue" stroke="powderblue" points="99.25,-401.5 23.25,-401.5 23.25,-365.5 99.25,-365.5 99.25,-401.5"/>
<text xml:space="preserve" text-anchor="middle" x="61.25" y="-378.45" font-family="Times,serif" font-size="14.00">IMPURN1</text>
</g>
<!-- URN -->
<g id="node15" class="node">
<title>URN</title>
<ellipse fill="lightsteelblue" stroke="powderblue" cx="213.38" cy="-387.5" rx="30.37" ry="30.37"/>
<text xml:space="preserve" text-anchor="middle" x="213.38" y="-382.45" font-family="Times,serif" font-size="14.00" fill="chocolate">URN</text>
</g>
<!-- IMPURN1&#45;&gt;URN -->
<g id="edge13" class="edge">
<title>IMPURN1&#45;&gt;URN</title>
<path fill="none" stroke="powderblue" d="M99.75,-384.5C121.64,-385.08 149.27,-385.82 171.69,-386.42"/>
<polygon fill="powderblue" stroke="powderblue" points="181.66,-386.68 171.55,-390.91 177.88,-386.58 171.67,-386.42 171.67,-386.42 171.67,-386.42 177.88,-386.58 171.79,-381.92 181.66,-386.68"/>
</g>
<!-- RHE -->
<g id="node11" class="node">
<title>RHE</title>
<polygon fill="powderblue" stroke="powderblue" points="1126.26,-297.5 1072.26,-297.5 1072.26,-261.5 1126.26,-261.5 1126.26,-297.5"/>
<text xml:space="preserve" text-anchor="middle" x="1099.26" y="-274.45" font-family="Times,serif" font-size="14.00">RHE</text>
</g>
<!-- RH -->
<g id="node32" class="node">
<title>RH</title>
<g id="a_node32"><a xlink:href="#" xlink:title="RH">
<ellipse fill="lightsteelblue" stroke="lightsteelblue" cx="1280.58" cy="-234.5" rx="23.71" ry="23.71"/>
<text xml:space="preserve" text-anchor="middle" x="1280.58" y="-229.45" font-family="Times,serif" font-size="14.00">RH</text>
</a>
</g>
</g>
<!-- RHE&#45;&gt;RH -->
<g id="edge15" class="edge">
<title>RHE&#45;&gt;RH</title>
<path fill="none" stroke="powderblue" d="M1126.72,-272.86C1158.63,-264.85 1212.27,-251.39 1246.78,-242.73"/>
<polygon fill="powderblue" stroke="powderblue" points="1256.08,-240.4 1247.48,-247.2 1252.41,-241.32 1246.38,-242.83 1246.38,-242.83 1246.38,-242.83 1252.41,-241.32 1245.29,-238.47 1256.08,-240.4"/>
</g>
<!-- TXE -->
<g id="node12" class="node">
<title>TXE</title>
<polygon fill="powderblue" stroke="powderblue" points="1126.26,-243.5 1072.26,-243.5 1072.26,-207.5 1126.26,-207.5 1126.26,-243.5"/>
<text xml:space="preserve" text-anchor="middle" x="1099.26" y="-220.45" font-family="Times,serif" font-size="14.00">TXE</text>
</g>
<!-- TX -->
<g id="node34" class="node">
<title>TX</title>
<g id="a_node34"><a xlink:href="#" xlink:title="TX">
<ellipse fill="lightsteelblue" stroke="lightsteelblue" cx="1280.58" cy="-130.5" rx="23.2" ry="23.2"/>
<text xml:space="preserve" text-anchor="middle" x="1280.58" y="-125.45" font-family="Times,serif" font-size="14.00">TX</text>
</a>
</g>
</g>
<!-- TXE&#45;&gt;TX -->
<g id="edge18" class="edge">
<title>TXE&#45;&gt;TX</title>
<path fill="none" stroke="powderblue" d="M1126.72,-211.48C1159.7,-194.01 1215.91,-164.23 1250.2,-146.06"/>
<polygon fill="powderblue" stroke="powderblue" points="1258.6,-141.62 1251.87,-150.28 1255.25,-143.39 1249.76,-146.3 1249.76,-146.3 1249.76,-146.3 1255.25,-143.39 1247.65,-142.32 1258.6,-141.62"/>
</g>
<!-- FEQ&#45;&gt;E21 -->
<g id="edge8" class="edge">
<title>FEQ&#45;&gt;E21</title>
<path fill="none" stroke="powderblue" d="M236.21,-487.49C261.49,-467.79 303.36,-435.15 332.36,-412.55"/>
<polygon fill="powderblue" stroke="powderblue" points="339.96,-406.63 334.84,-416.33 336.97,-408.96 332.07,-412.78 332.07,-412.78 332.07,-412.78 336.97,-408.96 329.3,-409.23 339.96,-406.63"/>
</g>
<!-- SRE -->
<g id="node23" class="node">
<title>SRE</title>
<g id="a_node23"><a xlink:href="#" xlink:title="SRE\nCapacity: 0.10">
<polygon fill="darkseagreen" stroke="darkseagreen" points="413.26,-87 317.76,-87 317.76,-46 413.26,-46 413.26,-87"/>
<text xml:space="preserve" text-anchor="middle" x="365.51" y="-69.7" font-family="Times,serif" font-size="14.00">SRE</text>
<text xml:space="preserve" text-anchor="middle" x="365.51" y="-53.2" font-family="Times,serif" font-size="14.00">Capacity: 0.10</text>
</a>
</g>
</g>
<!-- OIL&#45;&gt;SRE -->
<g id="edge14" class="edge">
<title>OIL&#45;&gt;SRE</title>
<path fill="none" stroke="powderblue" d="M239.85,-64.01C258.04,-64.37 283.26,-64.88 306.26,-65.34"/>
<polygon fill="powderblue" stroke="powderblue" points="316.11,-65.53 306.02,-69.83 312.33,-65.46 306.11,-65.33 306.11,-65.33 306.11,-65.33 312.33,-65.46 306.2,-60.83 316.11,-65.53"/>
</g>
<!-- URN&#45;&gt;E21 -->
<g id="edge19" class="edge">
<title>URN&#45;&gt;E21</title>
<path fill="none" stroke="powderblue" d="M244.04,-387.5C267.9,-387.5 301.57,-387.5 327.25,-387.5"/>
<polygon fill="powderblue" stroke="powderblue" points="337.2,-387.5 327.2,-392 333.42,-387.5 327.2,-387.5 327.2,-387.5 327.2,-387.5 333.42,-387.5 327.2,-383 337.2,-387.5"/>
</g>
<!-- CEM_PROD -->
<g id="node16" class="node">
<title>CEM_PROD</title>
<g id="a_node16"><a xlink:href="#" xlink:title="CEM_PROD\nCapacity: 19.59">
<polygon fill="darkseagreen" stroke="darkseagreen" points="1150.38,-530 1048.13,-530 1048.13,-489 1150.38,-489 1150.38,-530"/>
<text xml:space="preserve" text-anchor="middle" x="1099.26" y="-512.7" font-family="Times,serif" font-size="14.00">CEM_PROD</text>
<text xml:space="preserve" text-anchor="middle" x="1099.26" y="-496.2" font-family="Times,serif" font-size="14.00">Capacity: 19.59</text>
</a>
</g>
</g>
<!-- CEM_PROD&#45;&gt;CEM -->
<g id="edge30" class="edge">
<title>CEM_PROD&#45;&gt;CEM</title>
<path fill="none" stroke="forestgreen" d="M1150.69,-505.56C1178.21,-503.41 1211.88,-500.79 1237.9,-498.75"/>
<polygon fill="forestgreen" stroke="forestgreen" points="1247.69,-497.99 1238.07,-503.25 1243.92,-498.28 1237.72,-498.77 1237.72,-498.77 1237.72,-498.77 1243.92,-498.28 1237.37,-494.28 1247.69,-497.99"/>
<text xml:space="preserve" text-anchor="middle" x="1202.51" y="-505.7" font-family="Times,serif" font-size="14.00">13.06</text>
</g>
<!-- co2_cem -->
<g id="node36" class="node">
<title>co2_cem</title>
<ellipse fill="lightsteelblue" stroke="lightsteelblue" cx="1280.58" cy="-589.5" rx="44.7" ry="44.7"/>
<text xml:space="preserve" text-anchor="middle" x="1280.58" y="-584.45" font-family="Times,serif" font-size="14.00">co2_cem</text>
</g>
<!-- CEM_PROD&#45;&gt;co2_cem -->
<g id="edge31" class="edge">
<title>CEM_PROD&#45;&gt;co2_cem</title>
<path fill="none" stroke="forestgreen" d="M1146.9,-530.31C1172.19,-541.59 1203.46,-555.54 1229.29,-567.06"/>
<polygon fill="forestgreen" stroke="forestgreen" points="1238.14,-571.01 1227.18,-571.05 1234.69,-569.47 1229.01,-566.94 1229.01,-566.94 1229.01,-566.94 1234.69,-569.47 1230.85,-562.83 1238.14,-571.01"/>
<text xml:space="preserve" text-anchor="middle" x="1202.51" y="-564.71" font-family="Times,serif" font-size="14.00">1.96</text>
</g>
<!-- E01 -->
<g id="node17" class="node">
<title>E01</title>
<g id="a_node17"><a xlink:href="#" xlink:title="E01\nCapacity: 0.67">
<polygon fill="darkseagreen" stroke="darkseagreen" points="767.74,-424 672.24,-424 672.24,-383 767.74,-383 767.74,-424"/>
<text xml:space="preserve" text-anchor="middle" x="719.99" y="-406.7" font-family="Times,serif" font-size="14.00">E01</text>
<text xml:space="preserve" text-anchor="middle" x="719.99" y="-390.2" font-family="Times,serif" font-size="14.00">Capacity: 0.67</text>
</a>
</g>
</g>
<!-- E01&#45;&gt;ELC -->
<g id="edge32" class="edge">
<title>E01&#45;&gt;ELC</title>
<path fill="none" stroke="forestgreen" d="M768.11,-392.85C806.48,-384.17 859.92,-372.09 895.52,-364.04"/>
<polygon fill="forestgreen" stroke="forestgreen" points="905.22,-361.85 896.46,-368.45 901.53,-362.68 895.47,-364.06 895.47,-364.06 895.47,-364.06 901.53,-362.68 894.47,-359.67 905.22,-361.85"/>
<text xml:space="preserve" text-anchor="middle" x="836.87" y="-392.33" font-family="Times,serif" font-size="14.00">14.47</text>
</g>
<!-- E31 -->
<g id="node18" class="node">
<title>E31</title>
<g id="a_node18"><a xlink:href="#" xlink:title="E31\nCapacity: 0.13">
<polygon fill="darkseagreen" stroke="darkseagreen" points="526.76,-330 431.26,-330 431.26,-289 526.76,-289 526.76,-330"/>
<text xml:space="preserve" text-anchor="middle" x="479.01" y="-312.7" font-family="Times,serif" font-size="14.00">E31</text>
<text xml:space="preserve" text-anchor="middle" x="479.01" y="-296.2" font-family="Times,serif" font-size="14.00">Capacity: 0.13</text>
</a>
</g>
</g>
<!-- E31&#45;&gt;ELC -->
<g id="edge33" class="edge">
<title>E31&#45;&gt;ELC</title>
<path fill="none" stroke="forestgreen" d="M526.88,-314.37C577.73,-319.55 650.87,-327 650.87,-327 650.87,-327 817.2,-343.72 895.03,-351.55"/>
<polygon fill="forestgreen" stroke="forestgreen" points="904.62,-352.51 894.22,-355.99 900.86,-352.14 894.68,-351.51 894.68,-351.51 894.68,-351.51 900.86,-352.14 895.13,-347.04 904.62,-352.51"/>
<text xml:space="preserve" text-anchor="middle" x="638.87" y="-313.7" font-family="Times,serif" font-size="14.00">1.13</text>
</g>
<!-- E51 -->
<g id="node19" class="node">
<title>E51</title>
<g id="a_node19"><a xlink:href="#" xlink:title="E51\nCapacity: 1.40">
<polygon fill="darkseagreen" stroke="darkseagreen" points="1147.01,-416 1051.51,-416 1051.51,-375 1147.01,-375 1147.01,-416"/>
<text xml:space="preserve" text-anchor="middle" x="1099.26" y="-398.7" font-family="Times,serif" font-size="14.00">E51</text>
<text xml:space="preserve" text-anchor="middle" x="1099.26" y="-382.2" font-family="Times,serif" font-size="14.00">Capacity: 1.40</text>
</a>
</g>
</g>
<!-- E51&#45;&gt;ELC -->
<g id="edge34" class="edge">
<title>E51&#45;&gt;ELC</title>
<path fill="none" stroke="forestgreen" d="M1051.2,-383.95C1026.37,-377.85 996.33,-370.48 973.05,-364.76"/>
<polygon fill="forestgreen" stroke="forestgreen" points="963.4,-362.4 974.19,-360.41 967.08,-363.3 973.11,-364.78 973.11,-364.78 973.11,-364.78 967.08,-363.3 972.04,-369.15 963.4,-362.4"/>
<text xml:space="preserve" text-anchor="middle" x="996.01" y="-382.02" font-family="Times,serif" font-size="14.00">1.93</text>
</g>
<!-- E70 -->
<g id="node20" class="node">
<title>E70</title>
<g id="a_node20"><a xlink:href="#" xlink:title="E70\nCapacity: 0.04">
<polygon fill="darkseagreen" stroke="darkseagreen" points="767.74,-266 672.24,-266 672.24,-225 767.74,-225 767.74,-266"/>
<text xml:space="preserve" text-anchor="middle" x="719.99" y="-248.7" font-family="Times,serif" font-size="14.00">E70</text>
<text xml:space="preserve" text-anchor="middle" x="719.99" y="-232.2" font-family="Times,serif" font-size="14.00">Capacity: 0.04</text>
</a>
</g>
</g>
<!-- E70&#45;&gt;ELC -->
<g id="edge35" class="edge">
<title>E70&#45;&gt;ELC</title>
<path fill="none" stroke="forestgreen" d="M761.43,-266.45C801.3,-287.11 861.56,-318.33 899.12,-337.79"/>
<polygon fill="forestgreen" stroke="forestgreen" points="907.53,-342.14 896.58,-341.54 904.17,-340.4 898.65,-337.54 898.65,-337.54 898.65,-337.54 904.17,-340.4 900.72,-333.55 907.53,-342.14"/>
<text xml:space="preserve" text-anchor="middle" x="836.87" y="-283.2" font-family="Times,serif" font-size="14.00">0.37</text>
</g>
<!-- RHO -->
<g id="node21" class="node">
<title>RHO</title>
<g id="a_node21"><a xlink:href="#" xlink:title="RHO\nCapacity: 70.32">
<polygon fill="darkseagreen" stroke="darkseagreen" points="887.99,-200 785.74,-200 785.74,-159 887.99,-159 887.99,-200"/>
<text xml:space="preserve" text-anchor="middle" x="836.87" y="-182.7" font-family="Times,serif" font-size="14.00">RHO</text>
<text xml:space="preserve" text-anchor="middle" x="836.87" y="-166.2" font-family="Times,serif" font-size="14.00">Capacity: 70.32</text>
</a>
</g>
</g>
<!-- RHO&#45;&gt;RH -->
<g id="edge43" class="edge">
<title>RHO&#45;&gt;RH</title>
<path fill="none" stroke="forestgreen" d="M888.28,-184.36C939.76,-189.23 1011.38,-196 1011.38,-196 1011.38,-196 1173.05,-219.12 1245.81,-229.53"/>
<polygon fill="forestgreen" stroke="forestgreen" points="1255.49,-230.91 1244.95,-233.95 1251.74,-230.38 1245.59,-229.5 1245.59,-229.5 1245.59,-229.5 1251.74,-230.38 1246.22,-225.04 1255.49,-230.91"/>
<text xml:space="preserve" text-anchor="middle" x="996.01" y="-182.7" font-family="Times,serif" font-size="14.00">56.70</text>
</g>
<!-- RL1 -->
<g id="node22" class="node">
<title>RL1</title>
<g id="a_node22"><a xlink:href="#" xlink:title="RL1\nCapacity: 18.90">
<polygon fill="darkseagreen" stroke="darkseagreen" points="1150.38,-357 1048.13,-357 1048.13,-316 1150.38,-316 1150.38,-357"/>
<text xml:space="preserve" text-anchor="middle" x="1099.26" y="-339.7" font-family="Times,serif" font-size="14.00">RL1</text>
<text xml:space="preserve" text-anchor="middle" x="1099.26" y="-323.2" font-family="Times,serif" font-size="14.00">Capacity: 18.90</text>
</a>
</g>
</g>
<!-- RL -->
<g id="node33" class="node">
<title>RL</title>
<g id="a_node33"><a xlink:href="#" xlink:title="RL">
<ellipse fill="lightsteelblue" stroke="lightsteelblue" cx="1280.58" cy="-336.5" rx="22.69" ry="22.69"/>
<text xml:space="preserve" text-anchor="middle" x="1280.58" y="-331.45" font-family="Times,serif" font-size="14.00">RL</text>
</a>
</g>
</g>
<!-- RL1&#45;&gt;RL -->
<g id="edge44" class="edge">
<title>RL1&#45;&gt;RL</title>
<path fill="none" stroke="forestgreen" d="M1150.69,-336.5C1181.37,-336.5 1219.68,-336.5 1246.53,-336.5"/>
<polygon fill="forestgreen" stroke="forestgreen" points="1256.42,-336.5 1246.42,-341 1252.64,-336.5 1246.42,-336.5 1246.42,-336.5 1246.42,-336.5 1252.64,-336.5 1246.42,-332 1256.42,-336.5"/>
<text xml:space="preserve" text-anchor="middle" x="1202.51" y="-339.7" font-family="Times,serif" font-size="14.00">12.60</text>
</g>
<!-- SRE&#45;&gt;DSL -->
<g id="edge16" class="edge">
<title>SRE&#45;&gt;DSL</title>
<path fill="none" stroke="powderblue" d="M405.07,-87.49C443.77,-108.55 502.8,-140.68 539.89,-160.87"/>
<polygon fill="powderblue" stroke="powderblue" points="548.66,-165.64 537.73,-164.81 545.34,-163.83 539.88,-160.86 539.88,-160.86 539.88,-160.86 545.34,-163.83 542.03,-156.91 548.66,-165.64"/>
</g>
<!-- SRE&#45;&gt;GSL -->
<g id="edge17" class="edge">
<title>SRE&#45;&gt;GSL</title>
<path fill="none" stroke="powderblue" d="M413.62,-66.5C450.38,-66.5 500.83,-66.5 535.29,-66.5"/>
<polygon fill="powderblue" stroke="powderblue" points="545.11,-66.5 535.11,-71 541.32,-66.5 535.11,-66.5 535.11,-66.5 535.11,-66.5 541.32,-66.5 535.11,-62 545.11,-66.5"/>
</g>
<!-- TXD -->
<g id="node24" class="node">
<title>TXD</title>
<g id="a_node24"><a xlink:href="#" xlink:title="TXD\nCapacity: 4.76">
<polygon fill="darkseagreen" stroke="darkseagreen" points="767.74,-151 672.24,-151 672.24,-110 767.74,-110 767.74,-151"/>
<text xml:space="preserve" text-anchor="middle" x="719.99" y="-133.7" font-family="Times,serif" font-size="14.00">TXD</text>
<text xml:space="preserve" text-anchor="middle" x="719.99" y="-117.2" font-family="Times,serif" font-size="14.00">Capacity: 4.76</text>
</a>
</g>
</g>
<!-- TXD&#45;&gt;TX -->
<g id="edge45" class="edge">
<title>TXD&#45;&gt;TX</title>
<path fill="none" stroke="forestgreen" d="M768.11,-130.5C844.26,-130.5 984.01,-130.5 984.01,-130.5 984.01,-130.5 1167.58,-130.5 1245.88,-130.5"/>
<polygon fill="forestgreen" stroke="forestgreen" points="1255.84,-130.5 1245.84,-135 1252.06,-130.5 1245.84,-130.5 1245.84,-130.5 1245.84,-130.5 1252.06,-130.5 1245.84,-126 1255.84,-130.5"/>
<text xml:space="preserve" text-anchor="middle" x="996.01" y="-133.7" font-family="Times,serif" font-size="14.00">4.76</text>
</g>
<!-- nox -->
<g id="node37" class="node">
<title>nox</title>
<ellipse fill="lightsteelblue" stroke="lightsteelblue" cx="934.31" cy="-77.5" rx="24.74" ry="24.74"/>
<text xml:space="preserve" text-anchor="middle" x="934.31" y="-72.45" font-family="Times,serif" font-size="14.00">nox</text>
</g>
<!-- TXD&#45;&gt;nox -->
<g id="edge46" class="edge">
<title>TXD&#45;&gt;nox</title>
<path fill="none" stroke="forestgreen" d="M768.11,-118.74C807.8,-108.83 863.63,-94.9 899.14,-86.03"/>
<polygon fill="forestgreen" stroke="forestgreen" points="908.72,-83.64 900.11,-90.43 905.06,-84.55 899.02,-86.06 899.02,-86.06 899.02,-86.06 905.06,-84.55 897.93,-81.69 908.72,-83.64"/>
<text xml:space="preserve" text-anchor="middle" x="836.87" y="-103.2" font-family="Times,serif" font-size="14.00">4.76</text>
</g>
<!-- TXG -->
<g id="node25" class="node">
<title>TXG</title>
<g id="a_node25"><a xlink:href="#" xlink:title="TXG\nCapacity: 6.93">
<polygon fill="darkseagreen" stroke="darkseagreen" points="767.74,-79 672.24,-79 672.24,-38 767.74,-38 767.74,-79"/>
<text xml:space="preserve" text-anchor="middle" x="719.99" y="-61.7" font-family="Times,serif" font-size="14.00">TXG</text>
<text xml:space="preserve" text-anchor="middle" x="719.99" y="-45.2" font-family="Times,serif" font-size="14.00">Capacity: 6.93</text>
</a>
</g>
</g>
<!-- TXG&#45;&gt;TX -->
<g id="edge47" class="edge">
<title>TXG&#45;&gt;TX</title>
<path fill="none" stroke="forestgreen" d="M768.2,-55.57C850.19,-50.59 1008.01,-41 1008.01,-41 1008.01,-41 1175.54,-96.01 1247.92,-119.77"/>
<polygon fill="forestgreen" stroke="forestgreen" points="1257.12,-122.8 1246.21,-123.95 1253.52,-121.62 1247.62,-119.68 1247.62,-119.68 1247.62,-119.68 1253.52,-121.62 1249.02,-115.4 1257.12,-122.8"/>
<text xml:space="preserve" text-anchor="middle" x="996.01" y="-27.7" font-family="Times,serif" font-size="14.00">6.93</text>
</g>
<!-- TXG&#45;&gt;nox -->
<g id="edge48" class="edge">
<title>TXG&#45;&gt;nox</title>
<path fill="none" stroke="forestgreen" d="M768.11,-62.72C807.58,-66.25 863.01,-71.21 898.54,-74.39"/>
<polygon fill="forestgreen" stroke="forestgreen" points="908.12,-75.25 897.76,-78.84 904.36,-74.91 898.16,-74.35 898.16,-74.35 898.16,-74.35 904.36,-74.91 898.56,-69.87 908.12,-75.25"/>
<text xml:space="preserve" text-anchor="middle" x="836.87" y="-63.2" font-family="Times,serif" font-size="14.00">6.93</text>
</g>
<!-- DSL&#45;&gt;E70 -->
<g id="edge20" class="edge">
<title>DSL&#45;&gt;E70</title>
<path fill="none" stroke="firebrick" d="M601.34,-191.15C618.56,-199.1 642.06,-209.96 663.53,-219.88"/>
<polygon fill="firebrick" stroke="firebrick" points="672.44,-223.99 661.47,-223.88 669,-222.41 663.36,-219.8 663.36,-219.8 663.36,-219.8 669,-222.41 665.25,-215.71 672.44,-223.99"/>
<text xml:space="preserve" text-anchor="middle" x="638.87" y="-217.68" font-family="Times,serif" font-size="14.00">1.25</text>
</g>
<!-- DSL&#45;&gt;RHO -->
<g id="edge21" class="edge">
<title>DSL&#45;&gt;RHO</title>
<path fill="none" stroke="firebrick" d="M603.82,-179.5C614.23,-179.5 623.49,-179.5 623.49,-179.5 623.49,-179.5 711.47,-179.5 774.44,-179.5"/>
<polygon fill="firebrick" stroke="firebrick" points="784.27,-179.5 774.27,-184 780.49,-179.5 774.27,-179.5 774.27,-179.5 774.27,-179.5 780.49,-179.5 774.27,-175 784.27,-179.5"/>
<text xml:space="preserve" text-anchor="middle" x="638.87" y="-182.7" font-family="Times,serif" font-size="14.00">81.00</text>
</g>
<!-- DSL&#45;&gt;TXD -->
<g id="edge22" class="edge">
<title>DSL&#45;&gt;TXD</title>
<path fill="none" stroke="firebrick" d="M602.33,-170.51C618.86,-164.84 640.88,-157.29 661.34,-150.27"/>
<polygon fill="firebrick" stroke="firebrick" points="670.7,-147.06 662.71,-154.56 667.13,-148.29 661.25,-150.31 661.25,-150.31 661.25,-150.31 667.13,-148.29 659.79,-146.05 670.7,-147.06"/>
<text xml:space="preserve" text-anchor="middle" x="638.87" y="-144.2" font-family="Times,serif" font-size="14.00">20.61</text>
</g>
<!-- ELC&#45;&gt;CEM_PROD_CCS -->
<g id="edge4" class="edge">
<title>ELC&#45;&gt;CEM_PROD_CCS</title>
<path fill="none" stroke="powderblue" d="M959.01,-369.6C984.92,-385.03 1026.91,-410.03 1058.02,-428.54"/>
<polygon fill="powderblue" stroke="powderblue" points="1066.24,-433.44 1055.35,-432.19 1062.99,-431.51 1057.65,-428.33 1057.65,-428.33 1057.65,-428.33 1062.99,-431.51 1059.95,-424.46 1066.24,-433.44"/>
</g>
<!-- ELC&#45;&gt;CEM_PROD_RETRO -->
<g id="edge5" class="edge">
<title>ELC&#45;&gt;CEM_PROD_RETRO</title>
<path fill="none" stroke="powderblue" d="M952.44,-377.68C982.59,-416.72 1045,-497.53 1077.53,-539.65"/>
<polygon fill="powderblue" stroke="powderblue" points="1083.43,-547.3 1073.76,-542.14 1081.12,-544.31 1077.32,-539.39 1077.32,-539.39 1077.32,-539.39 1081.12,-544.31 1080.88,-536.64 1083.43,-547.3"/>
</g>
<!-- ELC&#45;&gt;RHE -->
<g id="edge6" class="edge">
<title>ELC&#45;&gt;RHE</title>
<path fill="none" stroke="powderblue" d="M960.42,-343.79C987.53,-331.15 1030.97,-310.89 1061.83,-296.49"/>
<polygon fill="powderblue" stroke="powderblue" points="1070.67,-292.37 1063.51,-300.67 1067.24,-293.97 1061.61,-296.59 1061.61,-296.59 1061.61,-296.59 1067.24,-293.97 1059.7,-292.52 1070.67,-292.37"/>
</g>
<!-- ELC&#45;&gt;TXE -->
<g id="edge7" class="edge">
<title>ELC&#45;&gt;TXE</title>
<path fill="none" stroke="powderblue" d="M956.95,-338.24C985.04,-315.83 1034.29,-276.54 1066.59,-250.77"/>
<polygon fill="powderblue" stroke="powderblue" points="1074.26,-244.64 1069.25,-254.4 1071.31,-247 1066.45,-250.88 1066.45,-250.88 1066.45,-250.88 1071.31,-247 1063.64,-247.36 1074.26,-244.64"/>
</g>
<!-- ELC&#45;&gt;CEM_PROD -->
<g id="edge23" class="edge">
<title>ELC&#45;&gt;CEM_PROD</title>
<path fill="none" stroke="firebrick" d="M955.62,-374.69C983.93,-401.45 1035.47,-450.16 1068.23,-481.12"/>
<polygon fill="firebrick" stroke="firebrick" points="1075.24,-487.75 1064.88,-484.15 1072.49,-485.15 1067.98,-480.88 1067.98,-480.88 1067.98,-480.88 1072.49,-485.15 1071.07,-477.61 1075.24,-487.75"/>
<text xml:space="preserve" text-anchor="middle" x="996.01" y="-460.6" font-family="Times,serif" font-size="14.00">2.61</text>
</g>
<!-- ELC&#45;&gt;E51 -->
<g id="edge24" class="edge">
<title>ELC&#45;&gt;E51</title>
<path fill="none" stroke="firebrick" d="M962.22,-362.11C983.43,-367.31 1013.78,-374.76 1040.43,-381.3"/>
<polygon fill="firebrick" stroke="firebrick" points="1050.02,-383.66 1039.23,-385.64 1046.34,-382.76 1040.3,-381.27 1040.3,-381.27 1040.3,-381.27 1046.34,-382.76 1041.38,-376.9 1050.02,-383.66"/>
<text xml:space="preserve" text-anchor="middle" x="996.01" y="-360.2" font-family="Times,serif" font-size="14.00">2.68</text>
</g>
<!-- ELC&#45;&gt;RL1 -->
<g id="edge25" class="edge">
<title>ELC&#45;&gt;RL1</title>
<path fill="none" stroke="firebrick" d="M962.59,-352.32C982.79,-349.96 1011.13,-346.66 1036.69,-343.68"/>
<polygon fill="firebrick" stroke="firebrick" points="1046.61,-342.52 1037.2,-348.15 1042.85,-342.96 1036.67,-343.68 1036.67,-343.68 1036.67,-343.68 1042.85,-342.96 1036.15,-339.21 1046.61,-342.52"/>
<text xml:space="preserve" text-anchor="middle" x="996.01" y="-320.2" font-family="Times,serif" font-size="14.00">12.60</text>
</g>
<!-- GSL&#45;&gt;TXG -->
<g id="edge26" class="edge">
<title>GSL&#45;&gt;TXG</title>
<path fill="none" stroke="firebrick" d="M603.67,-64.96C619.88,-64.05 641.01,-62.87 660.75,-61.76"/>
<polygon fill="firebrick" stroke="firebrick" points="670.62,-61.21 660.89,-66.26 666.85,-61.42 660.64,-61.77 660.64,-61.77 660.64,-61.77 666.85,-61.42 660.39,-57.27 670.62,-61.21"/>
<text xml:space="preserve" text-anchor="middle" x="638.87" y="-66.88" font-family="Times,serif" font-size="14.00">30.00</text>
</g>
<!-- HCO&#45;&gt;CEM_PROD_CCS -->
<g id="edge9" class="edge">
<title>HCO&#45;&gt;CEM_PROD_CCS</title>
<path fill="none" stroke="powderblue" d="M605.96,-452.5C687.69,-452.5 911.59,-452.5 1027.54,-452.5"/>
<polygon fill="powderblue" stroke="powderblue" points="1037.2,-452.5 1027.2,-457 1033.42,-452.5 1027.2,-452.5 1027.2,-452.5 1027.2,-452.5 1033.42,-452.5 1027.2,-448 1037.2,-452.5"/>
</g>
<!-- HCO&#45;&gt;CEM_PROD_RETRO -->
<g id="edge10" class="edge">
<title>HCO&#45;&gt;CEM_PROD_RETRO</title>
<path fill="none" stroke="powderblue" d="M605.19,-459.04C684.18,-476.22 899.69,-523.09 1018.3,-548.89"/>
<polygon fill="powderblue" stroke="powderblue" points="1027.93,-550.99 1017.2,-553.26 1024.24,-550.18 1018.16,-548.86 1018.16,-548.86 1018.16,-548.86 1024.24,-550.18 1019.12,-544.46 1027.93,-550.99"/>
</g>
<!-- HCO&#45;&gt;CEM_PROD -->
<g id="edge27" class="edge">
<title>HCO&#45;&gt;CEM_PROD</title>
<path fill="none" stroke="firebrick" d="M604.84,-460.34C670.37,-477.63 821.49,-517.5 821.49,-517.5 821.49,-517.5 954.53,-513.67 1036.46,-511.31"/>
<polygon fill="firebrick" stroke="firebrick" points="1046.45,-511.02 1036.58,-515.81 1042.67,-511.13 1036.45,-511.31 1036.45,-511.31 1036.45,-511.31 1042.67,-511.13 1036.32,-506.81 1046.45,-511.02"/>
<text xml:space="preserve" text-anchor="middle" x="836.87" y="-520.7" font-family="Times,serif" font-size="14.00">19.59</text>
</g>
<!-- HCO&#45;&gt;E01 -->
<g id="edge28" class="edge">
<title>HCO&#45;&gt;E01</title>
<path fill="none" stroke="firebrick" d="M604.35,-442.82C620.69,-437.22 641.85,-429.96 661.55,-423.2"/>
<polygon fill="firebrick" stroke="firebrick" points="670.83,-420.02 662.83,-427.52 667.25,-421.25 661.37,-423.26 661.37,-423.26 661.37,-423.26 667.25,-421.25 659.91,-419.01 670.83,-420.02"/>
<text xml:space="preserve" text-anchor="middle" x="638.87" y="-425.2" font-family="Times,serif" font-size="14.00">45.21</text>
</g>
<!-- HYD&#45;&gt;E31 -->
<g id="edge29" class="edge">
<title>HYD&#45;&gt;E31</title>
<path fill="none" stroke="firebrick" d="M244.45,-308.5C257.19,-308.5 269.01,-308.5 269.01,-308.5 269.01,-308.5 357.84,-308.92 419.96,-309.22"/>
<polygon fill="firebrick" stroke="firebrick" points="429.61,-309.26 419.59,-313.72 425.83,-309.25 419.61,-309.22 419.61,-309.22 419.61,-309.22 425.83,-309.25 419.63,-304.72 429.61,-309.26"/>
<text xml:space="preserve" text-anchor="middle" x="281.01" y="-311.7" font-family="Times,serif" font-size="14.00">3.52</text>
</g>
</g>
</svg>
