<?xml version="1.0" encoding="UTF-8" standalone="no"?>
<!DOCTYPE svg PUBLIC "-//W3C//DTD SVG 1.1//EN"
 "http://www.w3.org/Graphics/SVG/1.1/DTD/svg11.dtd">
<!-- Generated by graphviz version 13.0.1 (20250615.1724)
 -->
<!-- Title: model Pages: 1 -->
<svg width="1333pt" height="646pt"
 viewBox="0.00 0.00 1333.00 646.00" xmlns="http://www.w3.org/2000/svg" xmlns:xlink="http://www.w3.org/1999/xlink">
<g id="graph0" class="graph" transform="scale(1 1) rotate(0) translate(4 642.2)">
<title>model</title>
<polygon fill="white" stroke="none" points="-4,4 -4,-642.2 1329.28,-642.2 1329.28,4 -4,4"/>
<text xml:space="preserve" text-anchor="middle" x="662.64" y="-7.2" font-family="Times,serif" font-size="14.00">Results for 2060</text>
<!-- CEM_PROD -->
<g id="node1" class="node">
<title>CEM_PROD</title>
<polygon fill="powderblue" stroke="powderblue" points="1143.63,-470.5 1054.88,-470.5 1054.88,-434.5 1143.63,-434.5 1143.63,-470.5"/>
<text xml:space="preserve" text-anchor="middle" x="1099.26" y="-447.45" font-family="Times,serif" font-size="14.00">CEM_PROD</text>
</g>
<!-- CEM -->
<g id="node26" class="node">
<title>CEM</title>
<g id="a_node26"><a xlink:href="#" xlink:title="CEM">
<ellipse fill="lightsteelblue" stroke="lightsteelblue" cx="1280.58" cy="-499.5" rx="31.39" ry="31.39"/>
<text xml:space="preserve" text-anchor="middle" x="1280.58" y="-494.45" font-family="Times,serif" font-size="14.00">CEM</text>
</a>
</g>
</g>
<!-- CEM_PROD&#45;&gt;CEM -->
<g id="edge1" class="edge">
<title>CEM_PROD&#45;&gt;CEM</title>
<path fill="none" stroke="powderblue" d="M1144.13,-464C1173.14,-471.6 1210.91,-481.5 1239.19,-488.91"/>
<polygon fill="powderblue" stroke="powderblue" points="1248.73,-491.41 1237.91,-493.23 1245.07,-490.45 1239.05,-488.88 1239.05,-488.88 1239.05,-488.88 1245.07,-490.45 1240.19,-484.52 1248.73,-491.41"/>
</g>
<!-- E21 -->
<g id="node2" class="node">
<title>E21</title>
<polygon fill="powderblue" stroke="powderblue" points="392.51,-407.5 338.51,-407.5 338.51,-371.5 392.51,-371.5 392.51,-407.5"/>
<text xml:space="preserve" text-anchor="middle" x="365.51" y="-384.45" font-family="Times,serif" font-size="14.00">E21</text>
</g>
<!-- ELC -->
<g id="node28" class="node">
<title>ELC</title>
<g id="a_node28"><a xlink:href="#" xlink:title="ELC">
<ellipse fill="lightsteelblue" stroke="lightsteelblue" cx="934.31" cy="-355.5" rx="28.32" ry="28.32"/>
<text xml:space="preserve" text-anchor="middle" x="934.31" y="-350.45" font-family="Times,serif" font-size="14.00">ELC</text>
</a>
</g>
</g>
<!-- E21&#45;&gt;ELC -->
<g id="edge3" class="edge">
<title>E21&#45;&gt;ELC</title>
<path fill="none" stroke="powderblue" d="M392.94,-387.86C485.44,-382.33 786.12,-364.36 894.73,-357.87"/>
<polygon fill="powderblue" stroke="powderblue" points="904.6,-357.28 894.88,-362.36 900.82,-357.5 894.62,-357.87 894.62,-357.87 894.62,-357.87 900.82,-357.5 894.35,-353.38 904.6,-357.28"/>
</g>
<!-- IMPDSL1 -->
<g id="node3" class="node">
<title>IMPDSL1</title>
<g id="a_node3"><a xlink:href="#" xlink:title="IMPDSL1\nCapacity: 99999.00">
<polygon fill="powderblue" stroke="powderblue" points="122.5,-243 0,-243 0,-202 122.5,-202 122.5,-243"/>
<text xml:space="preserve" text-anchor="middle" x="61.25" y="-225.7" font-family="Times,serif" font-size="14.00">IMPDSL1</text>
<text xml:space="preserve" text-anchor="middle" x="61.25" y="-209.2" font-family="Times,serif" font-size="14.00">Capacity: 99999.00</text>
</a>
</g>
</g>
<!-- DSL -->
<g id="node27" class="node">
<title>DSL</title>
<g id="a_node27"><a xlink:href="#" xlink:title="DSL">
<ellipse fill="lightsteelblue" stroke="lightsteelblue" cx="575.13" cy="-179.5" rx="28.32" ry="28.32"/>
<text xml:space="preserve" text-anchor="middle" x="575.13" y="-174.45" font-family="Times,serif" font-size="14.00">DSL</text>
</a>
</g>
</g>
<!-- IMPDSL1&#45;&gt;DSL -->
<g id="edge36" class="edge">
<title>IMPDSL1&#45;&gt;DSL</title>
<path fill="none" stroke="forestgreen" d="M122.98,-216.68C193.65,-210.01 299.76,-200 299.76,-200 299.76,-200 459.13,-188.14 535.38,-182.46"/>
<polygon fill="forestgreen" stroke="forestgreen" points="545.22,-181.73 535.58,-186.96 541.45,-182.01 535.25,-182.47 535.25,-182.47 535.25,-182.47 541.45,-182.01 534.91,-177.98 545.22,-181.73"/>
<text xml:space="preserve" text-anchor="middle" x="281.01" y="-186.7" font-family="Times,serif" font-size="14.00">101.61</text>
</g>
<!-- co2 -->
<g id="node35" class="node">
<title>co2</title>
<ellipse fill="lightsteelblue" stroke="lightsteelblue" cx="213.38" cy="-235.5" rx="24.23" ry="24.23"/>
<text xml:space="preserve" text-anchor="middle" x="213.38" y="-230.45" font-family="Times,serif" font-size="14.00">co2</text>
</g>
<!-- IMPDSL1&#45;&gt;co2 -->
<g id="edge37" class="edge">
<title>IMPDSL1&#45;&gt;co2</title>
<path fill="none" stroke="forestgreen" d="M122.88,-227.75C141.61,-229.37 161.58,-231.1 177.9,-232.51"/>
<polygon fill="forestgreen" stroke="forestgreen" points="187.85,-233.38 177.5,-237 184.08,-233.05 177.89,-232.51 177.89,-232.51 177.89,-232.51 184.08,-233.05 178.28,-228.03 187.85,-233.38"/>
<text xml:space="preserve" text-anchor="middle" x="152.5" y="-234.5" font-family="Times,serif" font-size="14.00">7.62</text>
</g>
<!-- IMPFEQ -->
<g id="node4" class="node">
<title>IMPFEQ</title>
<polygon fill="powderblue" stroke="powderblue" points="94.38,-522.5 28.12,-522.5 28.12,-486.5 94.38,-486.5 94.38,-522.5"/>
<text xml:space="preserve" text-anchor="middle" x="61.25" y="-499.45" font-family="Times,serif" font-size="14.00">IMPFEQ</text>
</g>
<!-- FEQ -->
<g id="node12" class="node">
<title>FEQ</title>
<ellipse fill="lightsteelblue" stroke="powderblue" cx="213.38" cy="-504.5" rx="28.32" ry="28.32"/>
<text xml:space="preserve" text-anchor="middle" x="213.38" y="-499.45" font-family="Times,serif" font-size="14.00" fill="chocolate">FEQ</text>
</g>
<!-- IMPFEQ&#45;&gt;FEQ -->
<g id="edge10" class="edge">
<title>IMPFEQ&#45;&gt;FEQ</title>
<path fill="none" stroke="powderblue" d="M94.83,-504.5C118.05,-504.5 149.37,-504.5 173.85,-504.5"/>
<polygon fill="powderblue" stroke="powderblue" points="183.68,-504.5 173.68,-509 179.9,-504.5 173.68,-504.5 173.68,-504.5 173.68,-504.5 179.9,-504.5 173.68,-500 183.68,-504.5"/>
</g>
<!-- IMPGSL1 -->
<g id="node5" class="node">
<title>IMPGSL1</title>
<g id="a_node5"><a xlink:href="#" xlink:title="IMPGSL1\nCapacity: 99999.00">
<polygon fill="powderblue" stroke="powderblue" points="122.5,-157 0,-157 0,-116 122.5,-116 122.5,-157"/>
<text xml:space="preserve" text-anchor="middle" x="61.25" y="-139.7" font-family="Times,serif" font-size="14.00">IMPGSL1</text>
<text xml:space="preserve" text-anchor="middle" x="61.25" y="-123.2" font-family="Times,serif" font-size="14.00">Capacity: 99999.00</text>
</a>
</g>
</g>
<!-- GSL -->
<g id="node29" class="node">
<title>GSL</title>
<g id="a_node29"><a xlink:href="#" xlink:title="GSL">
<ellipse fill="lightsteelblue" stroke="lightsteelblue" cx="575.13" cy="-67.5" rx="28.32" ry="28.32"/>
<text xml:space="preserve" text-anchor="middle" x="575.13" y="-62.45" font-family="Times,serif" font-size="14.00">GSL</text>
</a>
</g>
</g>
<!-- IMPGSL1&#45;&gt;GSL -->
<g id="edge38" class="edge">
<title>IMPGSL1&#45;&gt;GSL</title>
<path fill="none" stroke="forestgreen" d="M122.85,-131.07C183.03,-125.78 265.63,-118.5 265.63,-118.5 265.63,-118.5 452.45,-87.72 535.8,-73.98"/>
<polygon fill="forestgreen" stroke="forestgreen" points="545.64,-72.36 536.5,-78.43 541.91,-72.97 535.77,-73.99 535.77,-73.99 535.77,-73.99 541.91,-72.97 535.04,-69.55 545.64,-72.36"/>
<text xml:space="preserve" text-anchor="middle" x="281.01" y="-121.7" font-family="Times,serif" font-size="14.00">30.00</text>
</g>
<!-- IMPGSL1&#45;&gt;co2 -->
<g id="edge39" class="edge">
<title>IMPGSL1&#45;&gt;co2</title>
<path fill="none" stroke="forestgreen" d="M94.09,-157.5C120.5,-174.91 157.73,-199.46 183.33,-216.35"/>
<polygon fill="forestgreen" stroke="forestgreen" points="191.51,-221.74 180.69,-219.99 188.36,-219.66 183.16,-216.24 183.16,-216.24 183.16,-216.24 188.36,-219.66 185.64,-212.48 191.51,-221.74"/>
<text xml:space="preserve" text-anchor="middle" x="152.5" y="-206.68" font-family="Times,serif" font-size="14.00">2.25</text>
</g>
<!-- IMPHCO1 -->
<g id="node6" class="node">
<title>IMPHCO1</title>
<g id="a_node6"><a xlink:href="#" xlink:title="IMPHCO1\nCapacity: 99999.00">
<polygon fill="powderblue" stroke="powderblue" points="122.5,-465 0,-465 0,-424 122.5,-424 122.5,-465"/>
<text xml:space="preserve" text-anchor="middle" x="61.25" y="-447.7" font-family="Times,serif" font-size="14.00">IMPHCO1</text>
<text xml:space="preserve" text-anchor="middle" x="61.25" y="-431.2" font-family="Times,serif" font-size="14.00">Capacity: 99999.00</text>
</a>
</g>
</g>
<!-- HCO -->
<g id="node30" class="node">
<title>HCO</title>
<g id="a_node30"><a xlink:href="#" xlink:title="HCO">
<ellipse fill="lightsteelblue" stroke="lightsteelblue" cx="575.13" cy="-452.5" rx="30.37" ry="30.37"/>
<text xml:space="preserve" text-anchor="middle" x="575.13" y="-447.45" font-family="Times,serif" font-size="14.00">HCO</text>
</a>
</g>
</g>
<!-- IMPHCO1&#45;&gt;HCO -->
<g id="edge40" class="edge">
<title>IMPHCO1&#45;&gt;HCO</title>
<path fill="none" stroke="forestgreen" d="M122.85,-445.71C183.03,-446.88 265.63,-448.5 265.63,-448.5 265.63,-448.5 448.81,-450.87 533.32,-451.96"/>
<polygon fill="forestgreen" stroke="forestgreen" points="543.1,-452.09 533.04,-456.46 539.32,-452.04 533.1,-451.96 533.1,-451.96 533.1,-451.96 539.32,-452.04 533.16,-447.46 543.1,-452.09"/>
<text xml:space="preserve" text-anchor="middle" x="281.01" y="-451.7" font-family="Times,serif" font-size="14.00">56.20</text>
</g>
<!-- IMPHCO1&#45;&gt;co2 -->
<g id="edge41" class="edge">
<title>IMPHCO1&#45;&gt;co2</title>
<path fill="none" stroke="forestgreen" d="M77.19,-423.7C104.22,-386.07 161.27,-306.66 191.9,-264.01"/>
<polygon fill="forestgreen" stroke="forestgreen" points="197.66,-255.99 195.48,-266.73 195.46,-259.06 191.83,-264.11 191.83,-264.11 191.83,-264.11 195.46,-259.06 188.17,-261.48 197.66,-255.99"/>
<text xml:space="preserve" text-anchor="middle" x="152.5" y="-378.93" font-family="Times,serif" font-size="14.00">5.00</text>
</g>
<!-- IMPHYD -->
<g id="node7" class="node">
<title>IMPHYD</title>
<g id="a_node7"><a xlink:href="#" xlink:title="IMPHYD\nCapacity: 99999.00">
<polygon fill="powderblue" stroke="powderblue" points="122.5,-331 0,-331 0,-290 122.5,-290 122.5,-331"/>
<text xml:space="preserve" text-anchor="middle" x="61.25" y="-313.7" font-family="Times,serif" font-size="14.00">IMPHYD</text>
<text xml:space="preserve" text-anchor="middle" x="61.25" y="-297.2" font-family="Times,serif" font-size="14.00">Capacity: 99999.00</text>
</a>
</g>
</g>
<!-- HYD -->
<g id="node31" class="node">
<title>HYD</title>
<g id="a_node31"><a xlink:href="#" xlink:title="HYD">
<ellipse fill="lightsteelblue" stroke="lightsteelblue" cx="213.38" cy="-310.5" rx="30.88" ry="30.88"/>
<text xml:space="preserve" text-anchor="middle" x="213.38" y="-305.45" font-family="Times,serif" font-size="14.00">HYD</text>
</a>
</g>
</g>
<!-- IMPHYD&#45;&gt;HYD -->
<g id="edge42" class="edge">
<title>IMPHYD&#45;&gt;HYD</title>
<path fill="none" stroke="forestgreen" d="M122.88,-310.5C139.09,-310.5 156.24,-310.5 171.14,-310.5"/>
<polygon fill="forestgreen" stroke="forestgreen" points="180.82,-310.5 170.82,-315 177.04,-310.5 170.82,-310.5 170.82,-310.5 170.82,-310.5 177.04,-310.5 170.82,-306 180.82,-310.5"/>
<text xml:space="preserve" text-anchor="middle" x="152.5" y="-313.7" font-family="Times,serif" font-size="14.00">3.52</text>
</g>
<!-- IMPOIL1 -->
<g id="node8" class="node">
<title>IMPOIL1</title>
<polygon fill="powderblue" stroke="powderblue" points="96.25,-82.5 26.25,-82.5 26.25,-46.5 96.25,-46.5 96.25,-82.5"/>
<text xml:space="preserve" text-anchor="middle" x="61.25" y="-59.45" font-family="Times,serif" font-size="14.00">IMPOIL1</text>
</g>
<!-- OIL -->
<g id="node13" class="node">
<title>OIL</title>
<ellipse fill="lightsteelblue" stroke="powderblue" cx="213.38" cy="-64.5" rx="26.27" ry="26.27"/>
<text xml:space="preserve" text-anchor="middle" x="213.38" y="-59.45" font-family="Times,serif" font-size="14.00" fill="chocolate">OIL</text>
</g>
<!-- IMPOIL1&#45;&gt;OIL -->
<g id="edge11" class="edge">
<title>IMPOIL1&#45;&gt;OIL</title>
<path fill="none" stroke="powderblue" d="M96.69,-64.5C120.35,-64.5 151.71,-64.5 175.81,-64.5"/>
<polygon fill="powderblue" stroke="powderblue" points="185.78,-64.5 175.78,-69 182,-64.5 175.78,-64.5 175.78,-64.5 175.78,-64.5 182,-64.5 175.78,-60 185.78,-64.5"/>
</g>
<!-- IMPURN1 -->
<g id="node9" class="node">
<title>IMPURN1</title>
<polygon fill="powderblue" stroke="powderblue" points="99.25,-401.5 23.25,-401.5 23.25,-365.5 99.25,-365.5 99.25,-401.5"/>
<text xml:space="preserve" text-anchor="middle" x="61.25" y="-378.45" font-family="Times,serif" font-size="14.00">IMPURN1</text>
</g>
<!-- URN -->
<g id="node14" class="node">
<title>URN</title>
<ellipse fill="lightsteelblue" stroke="powderblue" cx="213.38" cy="-389.5" rx="30.37" ry="30.37"/>
<text xml:space="preserve" text-anchor="middle" x="213.38" y="-384.45" font-family="Times,serif" font-size="14.00" fill="chocolate">URN</text>
</g>
<!-- IMPURN1&#45;&gt;URN -->
<g id="edge12" class="edge">
<title>IMPURN1&#45;&gt;URN</title>
<path fill="none" stroke="powderblue" d="M99.75,-385C121.64,-385.87 149.27,-386.98 171.69,-387.87"/>
<polygon fill="powderblue" stroke="powderblue" points="181.66,-388.27 171.49,-392.37 177.88,-388.12 171.67,-387.87 171.67,-387.87 171.67,-387.87 177.88,-388.12 171.85,-383.38 181.66,-388.27"/>
</g>
<!-- RHE -->
<g id="node10" class="node">
<title>RHE</title>
<polygon fill="powderblue" stroke="powderblue" points="1126.26,-297.5 1072.26,-297.5 1072.26,-261.5 1126.26,-261.5 1126.26,-297.5"/>
<text xml:space="preserve" text-anchor="middle" x="1099.26" y="-274.45" font-family="Times,serif" font-size="14.00">RHE</text>
</g>
<!-- RH -->
<g id="node32" class="node">
<title>RH</title>
<g id="a_node32"><a xlink:href="#" xlink:title="RH">
<ellipse fill="lightsteelblue" stroke="lightsteelblue" cx="1280.58" cy="-234.5" rx="23.71" ry="23.71"/>
<text xml:space="preserve" text-anchor="middle" x="1280.58" y="-229.45" font-family="Times,serif" font-size="14.00">RH</text>
</a>
</g>
</g>
<!-- RHE&#45;&gt;RH -->
<g id="edge14" class="edge">
<title>RHE&#45;&gt;RH</title>
<path fill="none" stroke="powderblue" d="M1126.72,-272.86C1158.63,-264.85 1212.27,-251.39 1246.78,-242.73"/>
<polygon fill="powderblue" stroke="powderblue" points="1256.08,-240.4 1247.48,-247.2 1252.41,-241.32 1246.38,-242.83 1246.38,-242.83 1246.38,-242.83 1252.41,-241.32 1245.29,-238.47 1256.08,-240.4"/>
</g>
<!-- TXE -->
<g id="node11" class="node">
<title>TXE</title>
<polygon fill="powderblue" stroke="powderblue" points="1126.26,-243.5 1072.26,-243.5 1072.26,-207.5 1126.26,-207.5 1126.26,-243.5"/>
<text xml:space="preserve" text-anchor="middle" x="1099.26" y="-220.45" font-family="Times,serif" font-size="14.00">TXE</text>
</g>
<!-- TX -->
<g id="node34" class="node">
<title>TX</title>
<g id="a_node34"><a xlink:href="#" xlink:title="TX">
<ellipse fill="lightsteelblue" stroke="lightsteelblue" cx="1280.58" cy="-130.5" rx="23.2" ry="23.2"/>
<text xml:space="preserve" text-anchor="middle" x="1280.58" y="-125.45" font-family="Times,serif" font-size="14.00">TX</text>
</a>
</g>
</g>
<!-- TXE&#45;&gt;TX -->
<g id="edge17" class="edge">
<title>TXE&#45;&gt;TX</title>
<path fill="none" stroke="powderblue" d="M1126.72,-211.48C1159.7,-194.01 1215.91,-164.23 1250.2,-146.06"/>
<polygon fill="powderblue" stroke="powderblue" points="1258.6,-141.62 1251.87,-150.28 1255.25,-143.39 1249.76,-146.3 1249.76,-146.3 1249.76,-146.3 1255.25,-143.39 1247.65,-142.32 1258.6,-141.62"/>
</g>
<!-- FEQ&#45;&gt;E21 -->
<g id="edge8" class="edge">
<title>FEQ&#45;&gt;E21</title>
<path fill="none" stroke="powderblue" d="M236.53,-487.53C261.63,-468.31 302.78,-436.78 331.63,-414.69"/>
<polygon fill="powderblue" stroke="powderblue" points="339.56,-408.61 334.36,-418.27 336.56,-410.91 331.62,-414.69 331.62,-414.69 331.62,-414.69 336.56,-410.91 328.88,-411.12 339.56,-408.61"/>
</g>
<!-- SRE -->
<g id="node23" class="node">
<title>SRE</title>
<g id="a_node23"><a xlink:href="#" xlink:title="SRE\nCapacity: 0.10">
<polygon fill="darkseagreen" stroke="darkseagreen" points="413.26,-88 317.76,-88 317.76,-47 413.26,-47 413.26,-88"/>
<text xml:space="preserve" text-anchor="middle" x="365.51" y="-70.7" font-family="Times,serif" font-size="14.00">SRE</text>
<text xml:space="preserve" text-anchor="middle" x="365.51" y="-54.2" font-family="Times,serif" font-size="14.00">Capacity: 0.10</text>
</a>
</g>
</g>
<!-- OIL&#45;&gt;SRE -->
<g id="edge13" class="edge">
<title>OIL&#45;&gt;SRE</title>
<path fill="none" stroke="powderblue" d="M239.85,-65.01C258.04,-65.37 283.26,-65.88 306.26,-66.34"/>
<polygon fill="powderblue" stroke="powderblue" points="316.11,-66.53 306.02,-70.83 312.33,-66.46 306.11,-66.33 306.11,-66.33 306.11,-66.33 312.33,-66.46 306.2,-61.83 316.11,-66.53"/>
</g>
<!-- URN&#45;&gt;E21 -->
<g id="edge18" class="edge">
<title>URN&#45;&gt;E21</title>
<path fill="none" stroke="powderblue" d="M244.04,-389.5C267.9,-389.5 301.57,-389.5 327.25,-389.5"/>
<polygon fill="powderblue" stroke="powderblue" points="337.2,-389.5 327.2,-394 333.42,-389.5 327.2,-389.5 327.2,-389.5 327.2,-389.5 333.42,-389.5 327.2,-385 337.2,-389.5"/>
</g>
<!-- CEM_PROD_CCS -->
<g id="node15" class="node">
<title>CEM_PROD_CCS</title>
<g id="a_node15"><a xlink:href="#" xlink:title="CEM_PROD_CCS\nCapacity: 7.33">
<polygon fill="darkseagreen" stroke="darkseagreen" points="1159.76,-589 1038.76,-589 1038.76,-548 1159.76,-548 1159.76,-589"/>
<text xml:space="preserve" text-anchor="middle" x="1099.26" y="-571.7" font-family="Times,serif" font-size="14.00">CEM_PROD_CCS</text>
<text xml:space="preserve" text-anchor="middle" x="1099.26" y="-555.2" font-family="Times,serif" font-size="14.00">Capacity: 7.33</text>
</a>
</g>
</g>
<!-- CEM_PROD_CCS&#45;&gt;CEM -->
<g id="edge30" class="edge">
<title>CEM_PROD_CCS&#45;&gt;CEM</title>
<path fill="none" stroke="forestgreen" d="M1154.55,-547.61C1182.24,-536.96 1215.29,-524.24 1240.46,-514.55"/>
<polygon fill="forestgreen" stroke="forestgreen" points="1249.58,-511.04 1241.86,-518.83 1246.05,-512.4 1240.25,-514.63 1240.25,-514.63 1240.25,-514.63 1246.05,-512.4 1238.63,-510.43 1249.58,-511.04"/>
<text xml:space="preserve" text-anchor="middle" x="1202.51" y="-539.09" font-family="Times,serif" font-size="14.00">4.89</text>
</g>
<!-- CEM_PROD_RETRO -->
<g id="node16" class="node">
<title>CEM_PROD_RETRO</title>
<g id="a_node16"><a xlink:href="#" xlink:title="CEM_PROD_RETRO\nCapacity: 4.67">
<polygon fill="darkseagreen" stroke="darkseagreen" points="1169.13,-530 1029.38,-530 1029.38,-489 1169.13,-489 1169.13,-530"/>
<text xml:space="preserve" text-anchor="middle" x="1099.26" y="-512.7" font-family="Times,serif" font-size="14.00">CEM_PROD_RETRO</text>
<text xml:space="preserve" text-anchor="middle" x="1099.26" y="-496.2" font-family="Times,serif" font-size="14.00">Capacity: 4.67</text>
</a>
</g>
</g>
<!-- CEM_PROD_RETRO&#45;&gt;CEM -->
<g id="edge31" class="edge">
<title>CEM_PROD_RETRO&#45;&gt;CEM</title>
<path fill="none" stroke="forestgreen" d="M1169.59,-505.63C1192.6,-504.35 1217.5,-502.96 1237.77,-501.83"/>
<polygon fill="forestgreen" stroke="forestgreen" points="1247.61,-501.28 1237.88,-506.33 1243.83,-501.49 1237.62,-501.84 1237.62,-501.84 1237.62,-501.84 1243.83,-501.49 1237.37,-497.35 1247.61,-501.28"/>
<text xml:space="preserve" text-anchor="middle" x="1202.51" y="-507.7" font-family="Times,serif" font-size="14.00">3.11</text>
</g>
<!-- co2_cem -->
<g id="node36" class="node">
<title>co2_cem</title>
<ellipse fill="lightsteelblue" stroke="lightsteelblue" cx="1280.58" cy="-593.5" rx="44.7" ry="44.7"/>
<text xml:space="preserve" text-anchor="middle" x="1280.58" y="-588.45" font-family="Times,serif" font-size="14.00">co2_cem</text>
</g>
<!-- CEM_PROD_RETRO&#45;&gt;co2_cem -->
<g id="edge32" class="edge">
<title>CEM_PROD_RETRO&#45;&gt;co2_cem</title>
<path fill="none" stroke="forestgreen" d="M1145.05,-530.48C1170.8,-542.55 1203.22,-557.73 1229.77,-570.17"/>
<polygon fill="forestgreen" stroke="forestgreen" points="1238.53,-574.27 1227.57,-574.11 1235.11,-572.67 1229.48,-570.03 1229.48,-570.03 1229.48,-570.03 1235.11,-572.67 1231.39,-565.96 1238.53,-574.27"/>
<text xml:space="preserve" text-anchor="middle" x="1202.51" y="-571.67" font-family="Times,serif" font-size="14.00">0.28</text>
</g>
<!-- E01 -->
<g id="node17" class="node">
<title>E01</title>
<g id="a_node17"><a xlink:href="#" xlink:title="E01\nCapacity: 0.68">
<polygon fill="darkseagreen" stroke="darkseagreen" points="767.74,-424 672.24,-424 672.24,-383 767.74,-383 767.74,-424"/>
<text xml:space="preserve" text-anchor="middle" x="719.99" y="-406.7" font-family="Times,serif" font-size="14.00">E01</text>
<text xml:space="preserve" text-anchor="middle" x="719.99" y="-390.2" font-family="Times,serif" font-size="14.00">Capacity: 0.68</text>
</a>
</g>
</g>
<!-- E01&#45;&gt;ELC -->
<g id="edge33" class="edge">
<title>E01&#45;&gt;ELC</title>
<path fill="none" stroke="forestgreen" d="M768.11,-392.85C806.48,-384.17 859.92,-372.09 895.52,-364.04"/>
<polygon fill="forestgreen" stroke="forestgreen" points="905.22,-361.85 896.46,-368.45 901.53,-362.68 895.47,-364.06 895.47,-364.06 895.47,-364.06 901.53,-362.68 894.47,-359.67 905.22,-361.85"/>
<text xml:space="preserve" text-anchor="middle" x="836.87" y="-392.33" font-family="Times,serif" font-size="14.00">14.44</text>
</g>
<!-- E31 -->
<g id="node18" class="node">
<title>E31</title>
<g id="a_node18"><a xlink:href="#" xlink:title="E31\nCapacity: 0.13">
<polygon fill="darkseagreen" stroke="darkseagreen" points="526.76,-334 431.26,-334 431.26,-293 526.76,-293 526.76,-334"/>
<text xml:space="preserve" text-anchor="middle" x="479.01" y="-316.7" font-family="Times,serif" font-size="14.00">E31</text>
<text xml:space="preserve" text-anchor="middle" x="479.01" y="-300.2" font-family="Times,serif" font-size="14.00">Capacity: 0.13</text>
</a>
</g>
</g>
<!-- E31&#45;&gt;ELC -->
<g id="edge34" class="edge">
<title>E31&#45;&gt;ELC</title>
<path fill="none" stroke="forestgreen" d="M526.88,-318.93C577.73,-324.7 650.87,-333 650.87,-333 650.87,-333 817.2,-346.2 895.03,-352.38"/>
<polygon fill="forestgreen" stroke="forestgreen" points="904.62,-353.14 894.3,-356.84 900.85,-352.84 894.65,-352.35 894.65,-352.35 894.65,-352.35 900.85,-352.84 895.01,-347.87 904.62,-353.14"/>
<text xml:space="preserve" text-anchor="middle" x="638.87" y="-319.7" font-family="Times,serif" font-size="14.00">1.13</text>
</g>
<!-- E51 -->
<g id="node19" class="node">
<title>E51</title>
<g id="a_node19"><a xlink:href="#" xlink:title="E51\nCapacity: 1.45">
<polygon fill="darkseagreen" stroke="darkseagreen" points="1147.01,-416 1051.51,-416 1051.51,-375 1147.01,-375 1147.01,-416"/>
<text xml:space="preserve" text-anchor="middle" x="1099.26" y="-398.7" font-family="Times,serif" font-size="14.00">E51</text>
<text xml:space="preserve" text-anchor="middle" x="1099.26" y="-382.2" font-family="Times,serif" font-size="14.00">Capacity: 1.45</text>
</a>
</g>
</g>
<!-- E51&#45;&gt;ELC -->
<g id="edge35" class="edge">
<title>E51&#45;&gt;ELC</title>
<path fill="none" stroke="forestgreen" d="M1051.2,-383.95C1026.37,-377.85 996.33,-370.48 973.05,-364.76"/>
<polygon fill="forestgreen" stroke="forestgreen" points="963.4,-362.4 974.19,-360.41 967.08,-363.3 973.11,-364.78 973.11,-364.78 973.11,-364.78 967.08,-363.3 972.04,-369.15 963.4,-362.4"/>
<text xml:space="preserve" text-anchor="middle" x="996.01" y="-382.02" font-family="Times,serif" font-size="14.00">1.92</text>
</g>
<!-- E70 -->
<g id="node20" class="node">
<title>E70</title>
<g id="a_node20"><a xlink:href="#" xlink:title="E70\nCapacity: 0.01">
<polygon fill="darkseagreen" stroke="darkseagreen" points="767.74,-269 672.24,-269 672.24,-228 767.74,-228 767.74,-269"/>
<text xml:space="preserve" text-anchor="middle" x="719.99" y="-251.7" font-family="Times,serif" font-size="14.00">E70</text>
<text xml:space="preserve" text-anchor="middle" x="719.99" y="-235.2" font-family="Times,serif" font-size="14.00">Capacity: 0.01</text>
</a>
</g>
</g>
<!-- E70&#45;&gt;ELC -->
<g id="edge4" class="edge">
<title>E70&#45;&gt;ELC</title>
<path fill="none" stroke="powderblue" d="M762.43,-269.38C802.15,-289.4 861.4,-319.26 898.67,-338.04"/>
<polygon fill="powderblue" stroke="powderblue" points="907.47,-342.48 896.52,-342 904.1,-340.78 898.54,-337.98 898.54,-337.98 898.54,-337.98 904.1,-340.78 900.57,-333.96 907.47,-342.48"/>
</g>
<!-- RHO -->
<g id="node21" class="node">
<title>RHO</title>
<g id="a_node21"><a xlink:href="#" xlink:title="RHO\nCapacity: 70.32">
<polygon fill="darkseagreen" stroke="darkseagreen" points="887.99,-200 785.74,-200 785.74,-159 887.99,-159 887.99,-200"/>
<text xml:space="preserve" text-anchor="middle" x="836.87" y="-182.7" font-family="Times,serif" font-size="14.00">RHO</text>
<text xml:space="preserve" text-anchor="middle" x="836.87" y="-166.2" font-family="Times,serif" font-size="14.00">Capacity: 70.32</text>
</a>
</g>
</g>
<!-- RHO&#45;&gt;RH -->
<g id="edge43" class="edge">
<title>RHO&#45;&gt;RH</title>
<path fill="none" stroke="forestgreen" d="M888.28,-184.36C939.76,-189.23 1011.38,-196 1011.38,-196 1011.38,-196 1173.05,-219.12 1245.81,-229.53"/>
<polygon fill="forestgreen" stroke="forestgreen" points="1255.49,-230.91 1244.95,-233.95 1251.74,-230.38 1245.59,-229.5 1245.59,-229.5 1245.59,-229.5 1251.74,-230.38 1246.22,-225.04 1255.49,-230.91"/>
<text xml:space="preserve" text-anchor="middle" x="996.01" y="-182.7" font-family="Times,serif" font-size="14.00">56.70</text>
</g>
<!-- RL1 -->
<g id="node22" class="node">
<title>RL1</title>
<g id="a_node22"><a xlink:href="#" xlink:title="RL1\nCapacity: 18.90">
<polygon fill="darkseagreen" stroke="darkseagreen" points="1150.38,-357 1048.13,-357 1048.13,-316 1150.38,-316 1150.38,-357"/>
<text xml:space="preserve" text-anchor="middle" x="1099.26" y="-339.7" font-family="Times,serif" font-size="14.00">RL1</text>
<text xml:space="preserve" text-anchor="middle" x="1099.26" y="-323.2" font-family="Times,serif" font-size="14.00">Capacity: 18.90</text>
</a>
</g>
</g>
<!-- RL -->
<g id="node33" class="node">
<title>RL</title>
<g id="a_node33"><a xlink:href="#" xlink:title="RL">
<ellipse fill="lightsteelblue" stroke="lightsteelblue" cx="1280.58" cy="-336.5" rx="22.69" ry="22.69"/>
<text xml:space="preserve" text-anchor="middle" x="1280.58" y="-331.45" font-family="Times,serif" font-size="14.00">RL</text>
</a>
</g>
</g>
<!-- RL1&#45;&gt;RL -->
<g id="edge44" class="edge">
<title>RL1&#45;&gt;RL</title>
<path fill="none" stroke="forestgreen" d="M1150.69,-336.5C1181.37,-336.5 1219.68,-336.5 1246.53,-336.5"/>
<polygon fill="forestgreen" stroke="forestgreen" points="1256.42,-336.5 1246.42,-341 1252.64,-336.5 1246.42,-336.5 1246.42,-336.5 1246.42,-336.5 1252.64,-336.5 1246.42,-332 1256.42,-336.5"/>
<text xml:space="preserve" text-anchor="middle" x="1202.51" y="-339.7" font-family="Times,serif" font-size="14.00">12.60</text>
</g>
<!-- SRE&#45;&gt;DSL -->
<g id="edge15" class="edge">
<title>SRE&#45;&gt;DSL</title>
<path fill="none" stroke="powderblue" d="M405.07,-88.3C443.77,-109.18 502.8,-141.03 539.89,-161.03"/>
<polygon fill="powderblue" stroke="powderblue" points="548.66,-165.76 537.72,-164.98 545.33,-163.97 539.86,-161.02 539.86,-161.02 539.86,-161.02 545.33,-163.97 542,-157.05 548.66,-165.76"/>
</g>
<!-- SRE&#45;&gt;GSL -->
<g id="edge16" class="edge">
<title>SRE&#45;&gt;GSL</title>
<path fill="none" stroke="powderblue" d="M413.62,-67.5C450.38,-67.5 500.83,-67.5 535.29,-67.5"/>
<polygon fill="powderblue" stroke="powderblue" points="545.11,-67.5 535.11,-72 541.32,-67.5 535.11,-67.5 535.11,-67.5 535.11,-67.5 541.32,-67.5 535.11,-63 545.11,-67.5"/>
</g>
<!-- TXD -->
<g id="node24" class="node">
<title>TXD</title>
<g id="a_node24"><a xlink:href="#" xlink:title="TXD\nCapacity: 4.76">
<polygon fill="darkseagreen" stroke="darkseagreen" points="767.74,-151 672.24,-151 672.24,-110 767.74,-110 767.74,-151"/>
<text xml:space="preserve" text-anchor="middle" x="719.99" y="-133.7" font-family="Times,serif" font-size="14.00">TXD</text>
<text xml:space="preserve" text-anchor="middle" x="719.99" y="-117.2" font-family="Times,serif" font-size="14.00">Capacity: 4.76</text>
</a>
</g>
</g>
<!-- TXD&#45;&gt;TX -->
<g id="edge45" class="edge">
<title>TXD&#45;&gt;TX</title>
<path fill="none" stroke="forestgreen" d="M768.11,-130.5C844.26,-130.5 984.01,-130.5 984.01,-130.5 984.01,-130.5 1167.58,-130.5 1245.88,-130.5"/>
<polygon fill="forestgreen" stroke="forestgreen" points="1255.84,-130.5 1245.84,-135 1252.06,-130.5 1245.84,-130.5 1245.84,-130.5 1245.84,-130.5 1252.06,-130.5 1245.84,-126 1255.84,-130.5"/>
<text xml:space="preserve" text-anchor="middle" x="996.01" y="-133.7" font-family="Times,serif" font-size="14.00">4.76</text>
</g>
<!-- nox -->
<g id="node37" class="node">
<title>nox</title>
<ellipse fill="lightsteelblue" stroke="lightsteelblue" cx="934.31" cy="-77.5" rx="24.74" ry="24.74"/>
<text xml:space="preserve" text-anchor="middle" x="934.31" y="-72.45" font-family="Times,serif" font-size="14.00">nox</text>
</g>
<!-- TXD&#45;&gt;nox -->
<g id="edge46" class="edge">
<title>TXD&#45;&gt;nox</title>
<path fill="none" stroke="forestgreen" d="M768.11,-118.74C807.8,-108.83 863.63,-94.9 899.14,-86.03"/>
<polygon fill="forestgreen" stroke="forestgreen" points="908.72,-83.64 900.11,-90.43 905.06,-84.55 899.02,-86.06 899.02,-86.06 899.02,-86.06 905.06,-84.55 897.93,-81.69 908.72,-83.64"/>
<text xml:space="preserve" text-anchor="middle" x="836.87" y="-103.2" font-family="Times,serif" font-size="14.00">4.76</text>
</g>
<!-- TXG -->
<g id="node25" class="node">
<title>TXG</title>
<g id="a_node25"><a xlink:href="#" xlink:title="TXG\nCapacity: 6.93">
<polygon fill="darkseagreen" stroke="darkseagreen" points="767.74,-79 672.24,-79 672.24,-38 767.74,-38 767.74,-79"/>
<text xml:space="preserve" text-anchor="middle" x="719.99" y="-61.7" font-family="Times,serif" font-size="14.00">TXG</text>
<text xml:space="preserve" text-anchor="middle" x="719.99" y="-45.2" font-family="Times,serif" font-size="14.00">Capacity: 6.93</text>
</a>
</g>
</g>
<!-- TXG&#45;&gt;TX -->
<g id="edge47" class="edge">
<title>TXG&#45;&gt;TX</title>
<path fill="none" stroke="forestgreen" d="M768.2,-55.57C850.19,-50.59 1008.01,-41 1008.01,-41 1008.01,-41 1175.54,-96.01 1247.92,-119.77"/>
<polygon fill="forestgreen" stroke="forestgreen" points="1257.12,-122.8 1246.21,-123.95 1253.52,-121.62 1247.62,-119.68 1247.62,-119.68 1247.62,-119.68 1253.52,-121.62 1249.02,-115.4 1257.12,-122.8"/>
<text xml:space="preserve" text-anchor="middle" x="996.01" y="-27.7" font-family="Times,serif" font-size="14.00">6.93</text>
</g>
<!-- TXG&#45;&gt;nox -->
<g id="edge48" class="edge">
<title>TXG&#45;&gt;nox</title>
<path fill="none" stroke="forestgreen" d="M768.11,-62.72C807.58,-66.25 863.01,-71.21 898.54,-74.39"/>
<polygon fill="forestgreen" stroke="forestgreen" points="908.12,-75.25 897.76,-78.84 904.36,-74.91 898.16,-74.35 898.16,-74.35 898.16,-74.35 904.36,-74.91 898.56,-69.87 908.12,-75.25"/>
<text xml:space="preserve" text-anchor="middle" x="836.87" y="-63.2" font-family="Times,serif" font-size="14.00">6.93</text>
</g>
<!-- DSL&#45;&gt;E70 -->
<g id="edge2" class="edge">
<title>DSL&#45;&gt;E70</title>
<path fill="none" stroke="powderblue" d="M601.01,-191.52C618.83,-200.12 643.49,-212.03 665.66,-222.74"/>
<polygon fill="powderblue" stroke="powderblue" points="674.54,-227.03 663.58,-226.73 671.13,-225.39 665.54,-222.68 665.54,-222.68 665.54,-222.68 671.13,-225.39 667.49,-218.63 674.54,-227.03"/>
</g>
<!-- DSL&#45;&gt;RHO -->
<g id="edge19" class="edge">
<title>DSL&#45;&gt;RHO</title>
<path fill="none" stroke="firebrick" d="M603.82,-179.5C614.23,-179.5 623.49,-179.5 623.49,-179.5 623.49,-179.5 711.47,-179.5 774.44,-179.5"/>
<polygon fill="firebrick" stroke="firebrick" points="784.27,-179.5 774.27,-184 780.49,-179.5 774.27,-179.5 774.27,-179.5 774.27,-179.5 780.49,-179.5 774.27,-175 784.27,-179.5"/>
<text xml:space="preserve" text-anchor="middle" x="638.87" y="-182.7" font-family="Times,serif" font-size="14.00">81.00</text>
</g>
<!-- DSL&#45;&gt;TXD -->
<g id="edge20" class="edge">
<title>DSL&#45;&gt;TXD</title>
<path fill="none" stroke="firebrick" d="M602.33,-170.51C618.86,-164.84 640.88,-157.29 661.34,-150.27"/>
<polygon fill="firebrick" stroke="firebrick" points="670.7,-147.06 662.71,-154.56 667.13,-148.29 661.25,-150.31 661.25,-150.31 661.25,-150.31 667.13,-148.29 659.79,-146.05 670.7,-147.06"/>
<text xml:space="preserve" text-anchor="middle" x="638.87" y="-144.2" font-family="Times,serif" font-size="14.00">20.61</text>
</g>
<!-- ELC&#45;&gt;CEM_PROD -->
<g id="edge5" class="edge">
<title>ELC&#45;&gt;CEM_PROD</title>
<path fill="none" stroke="powderblue" d="M959.01,-369.6C984.92,-385.03 1026.91,-410.03 1058.02,-428.54"/>
<polygon fill="powderblue" stroke="powderblue" points="1066.24,-433.44 1055.35,-432.19 1062.99,-431.51 1057.65,-428.33 1057.65,-428.33 1057.65,-428.33 1062.99,-431.51 1059.95,-424.46 1066.24,-433.44"/>
</g>
<!-- ELC&#45;&gt;RHE -->
<g id="edge6" class="edge">
<title>ELC&#45;&gt;RHE</title>
<path fill="none" stroke="powderblue" d="M960.42,-343.79C987.53,-331.15 1030.97,-310.89 1061.83,-296.49"/>
<polygon fill="powderblue" stroke="powderblue" points="1070.67,-292.37 1063.51,-300.67 1067.24,-293.97 1061.61,-296.59 1061.61,-296.59 1061.61,-296.59 1067.24,-293.97 1059.7,-292.52 1070.67,-292.37"/>
</g>
<!-- ELC&#45;&gt;TXE -->
<g id="edge7" class="edge">
<title>ELC&#45;&gt;TXE</title>
<path fill="none" stroke="powderblue" d="M956.95,-338.24C985.04,-315.83 1034.29,-276.54 1066.59,-250.77"/>
<polygon fill="powderblue" stroke="powderblue" points="1074.26,-244.64 1069.25,-254.4 1071.31,-247 1066.45,-250.88 1066.45,-250.88 1066.45,-250.88 1071.31,-247 1063.64,-247.36 1074.26,-244.64"/>
</g>
<!-- ELC&#45;&gt;CEM_PROD_CCS -->
<g id="edge21" class="edge">
<title>ELC&#45;&gt;CEM_PROD_CCS</title>
<path fill="none" stroke="firebrick" d="M952.44,-377.89C981.98,-416.5 1042.49,-495.6 1075.52,-538.77"/>
<polygon fill="firebrick" stroke="firebrick" points="1081.58,-546.7 1071.93,-541.49 1079.28,-543.7 1075.5,-538.76 1075.5,-538.76 1075.5,-538.76 1079.28,-543.7 1079.08,-536.02 1081.58,-546.7"/>
<text xml:space="preserve" text-anchor="middle" x="996.01" y="-519.08" font-family="Times,serif" font-size="14.00">0.98</text>
</g>
<!-- ELC&#45;&gt;CEM_PROD_RETRO -->
<g id="edge22" class="edge">
<title>ELC&#45;&gt;CEM_PROD_RETRO</title>
<path fill="none" stroke="firebrick" d="M955.62,-374.69C983.93,-401.45 1035.47,-450.16 1068.23,-481.12"/>
<polygon fill="firebrick" stroke="firebrick" points="1075.24,-487.75 1064.88,-484.15 1072.49,-485.15 1067.98,-480.88 1067.98,-480.88 1067.98,-480.88 1072.49,-485.15 1071.07,-477.61 1075.24,-487.75"/>
<text xml:space="preserve" text-anchor="middle" x="996.01" y="-460.6" font-family="Times,serif" font-size="14.00">1.24</text>
</g>
<!-- ELC&#45;&gt;E51 -->
<g id="edge23" class="edge">
<title>ELC&#45;&gt;E51</title>
<path fill="none" stroke="firebrick" d="M962.22,-362.11C983.43,-367.31 1013.78,-374.76 1040.43,-381.3"/>
<polygon fill="firebrick" stroke="firebrick" points="1050.02,-383.66 1039.23,-385.64 1046.34,-382.76 1040.3,-381.27 1040.3,-381.27 1040.3,-381.27 1046.34,-382.76 1041.38,-376.9 1050.02,-383.66"/>
<text xml:space="preserve" text-anchor="middle" x="996.01" y="-360.2" font-family="Times,serif" font-size="14.00">2.67</text>
</g>
<!-- ELC&#45;&gt;RL1 -->
<g id="edge24" class="edge">
<title>ELC&#45;&gt;RL1</title>
<path fill="none" stroke="firebrick" d="M962.59,-352.32C982.79,-349.96 1011.13,-346.66 1036.69,-343.68"/>
<polygon fill="firebrick" stroke="firebrick" points="1046.61,-342.52 1037.2,-348.15 1042.85,-342.96 1036.67,-343.68 1036.67,-343.68 1036.67,-343.68 1042.85,-342.96 1036.15,-339.21 1046.61,-342.52"/>
<text xml:space="preserve" text-anchor="middle" x="996.01" y="-320.2" font-family="Times,serif" font-size="14.00">12.60</text>
</g>
<!-- GSL&#45;&gt;TXG -->
<g id="edge25" class="edge">
<title>GSL&#45;&gt;TXG</title>
<path fill="none" stroke="firebrick" d="M603.67,-65.76C619.88,-64.74 641.01,-63.41 660.75,-62.17"/>
<polygon fill="firebrick" stroke="firebrick" points="670.63,-61.55 660.93,-66.67 666.85,-61.78 660.65,-62.18 660.65,-62.18 660.65,-62.18 666.85,-61.78 660.36,-57.68 670.63,-61.55"/>
<text xml:space="preserve" text-anchor="middle" x="638.87" y="-67.53" font-family="Times,serif" font-size="14.00">30.00</text>
</g>
<!-- HCO&#45;&gt;CEM_PROD -->
<g id="edge9" class="edge">
<title>HCO&#45;&gt;CEM_PROD</title>
<path fill="none" stroke="powderblue" d="M605.96,-452.5C691.58,-452.5 933.2,-452.5 1043.32,-452.5"/>
<polygon fill="powderblue" stroke="powderblue" points="1053.28,-452.5 1043.29,-457 1049.5,-452.5 1043.28,-452.5 1043.28,-452.5 1043.28,-452.5 1049.5,-452.5 1043.28,-448 1053.28,-452.5"/>
</g>
<!-- HCO&#45;&gt;CEM_PROD_CCS -->
<g id="edge26" class="edge">
<title>HCO&#45;&gt;CEM_PROD_CCS</title>
<path fill="none" stroke="firebrick" d="M602.33,-466.66C667.06,-500.35 824.87,-582.5 824.87,-582.5 824.87,-582.5 945.87,-576.33 1027.17,-572.18"/>
<polygon fill="firebrick" stroke="firebrick" points="1037.14,-571.67 1027.39,-576.67 1033.37,-571.86 1027.16,-572.18 1027.16,-572.18 1027.16,-572.18 1033.37,-571.86 1026.93,-567.68 1037.14,-571.67"/>
<text xml:space="preserve" text-anchor="middle" x="836.87" y="-585.7" font-family="Times,serif" font-size="14.00">7.33</text>
</g>
<!-- HCO&#45;&gt;CEM_PROD_RETRO -->
<g id="edge27" class="edge">
<title>HCO&#45;&gt;CEM_PROD_RETRO</title>
<path fill="none" stroke="firebrick" d="M604.75,-460.21C670.91,-477.43 824.87,-517.5 824.87,-517.5 824.87,-517.5 936.87,-514.23 1017.76,-511.88"/>
<polygon fill="firebrick" stroke="firebrick" points="1027.73,-511.59 1017.87,-516.37 1023.95,-511.7 1017.74,-511.88 1017.74,-511.88 1017.74,-511.88 1023.95,-511.7 1017.61,-507.38 1027.73,-511.59"/>
<text xml:space="preserve" text-anchor="middle" x="836.87" y="-520.7" font-family="Times,serif" font-size="14.00">3.73</text>
</g>
<!-- HCO&#45;&gt;E01 -->
<g id="edge28" class="edge">
<title>HCO&#45;&gt;E01</title>
<path fill="none" stroke="firebrick" d="M604.35,-442.82C620.69,-437.22 641.85,-429.96 661.55,-423.2"/>
<polygon fill="firebrick" stroke="firebrick" points="670.83,-420.02 662.83,-427.52 667.25,-421.25 661.37,-423.26 661.37,-423.26 661.37,-423.26 667.25,-421.25 659.91,-419.01 670.83,-420.02"/>
<text xml:space="preserve" text-anchor="middle" x="638.87" y="-425.2" font-family="Times,serif" font-size="14.00">45.13</text>
</g>
<!-- HYD&#45;&gt;E31 -->
<g id="edge29" class="edge">
<title>HYD&#45;&gt;E31</title>
<path fill="none" stroke="firebrick" d="M244.45,-311.62C257.19,-312.08 269.01,-312.5 269.01,-312.5 269.01,-312.5 357.84,-312.92 419.96,-313.22"/>
<polygon fill="firebrick" stroke="firebrick" points="429.61,-313.26 419.59,-317.72 425.83,-313.25 419.61,-313.22 419.61,-313.22 419.61,-313.22 425.83,-313.25 419.63,-308.72 429.61,-313.26"/>
<text xml:space="preserve" text-anchor="middle" x="281.01" y="-315.7" font-family="Times,serif" font-size="14.00">3.52</text>
</g>
</g>
</svg>
